<mxfile host="app.diagrams.net" agent="Mozilla/5.0 (Windows NT 10.0; Win64; x64) AppleWebKit/537.36 (KHTML, like Gecko) Chrome/128.0.0.0 Safari/537.36 Edg/128.0.0.0" version="24.7.14">
  <diagram name="Page-1" id="LUHJq-eQziMhcH-RcdxW">
    <mxGraphModel dx="1651" dy="874" grid="1" gridSize="10" guides="1" tooltips="1" connect="1" arrows="1" fold="1" page="1" pageScale="1" pageWidth="850" pageHeight="1100" math="0" shadow="0">
      <root>
        <mxCell id="0" />
        <mxCell id="1" parent="0" />
        <mxCell id="F3xhZ0yxzu9XNyZ04QvM-19" style="edgeStyle=orthogonalEdgeStyle;rounded=0;orthogonalLoop=1;jettySize=auto;html=1;startArrow=classic;startFill=1;" edge="1" parent="1" source="F3xhZ0yxzu9XNyZ04QvM-2" target="F3xhZ0yxzu9XNyZ04QvM-18">
          <mxGeometry relative="1" as="geometry" />
        </mxCell>
        <mxCell id="F3xhZ0yxzu9XNyZ04QvM-2" value="Raspberry Pi&amp;nbsp;&lt;div&gt;Podman Server&lt;/div&gt;" style="shape=image;html=1;verticalAlign=middle;verticalLabelPosition=middle;labelBackgroundColor=#ffffff;imageAspect=0;aspect=fixed;image=https://cdn1.iconfinder.com/data/icons/fruit-136/64/Fruit_iconfree_Filled_Outline_raspberry-healthy-organic-food-fruit_icon-128.png;labelPosition=left;align=right;" vertex="1" parent="1">
          <mxGeometry x="121" y="250" width="90" height="90" as="geometry" />
        </mxCell>
        <mxCell id="F3xhZ0yxzu9XNyZ04QvM-9" style="edgeStyle=orthogonalEdgeStyle;rounded=0;orthogonalLoop=1;jettySize=auto;html=1;startArrow=classic;startFill=1;entryX=0;entryY=0.5;entryDx=0;entryDy=0;entryPerimeter=0;" edge="1" parent="1" source="F3xhZ0yxzu9XNyZ04QvM-7" target="F3xhZ0yxzu9XNyZ04QvM-10">
          <mxGeometry relative="1" as="geometry">
            <mxPoint x="125" y="190" as="targetPoint" />
          </mxGeometry>
        </mxCell>
        <mxCell id="F3xhZ0yxzu9XNyZ04QvM-7" value="Client PC" style="image;points=[];aspect=fixed;html=1;align=right;shadow=0;dashed=0;image=img/lib/allied_telesis/computer_and_terminals/Personal_Computer.svg;labelPosition=left;verticalLabelPosition=middle;verticalAlign=middle;" vertex="1" parent="1">
          <mxGeometry x="60" y="160.1" width="45.6" height="61.800000000000004" as="geometry" />
        </mxCell>
        <mxCell id="F3xhZ0yxzu9XNyZ04QvM-11" style="edgeStyle=orthogonalEdgeStyle;rounded=0;orthogonalLoop=1;jettySize=auto;html=1;startArrow=classic;startFill=1;" edge="1" parent="1" source="F3xhZ0yxzu9XNyZ04QvM-10" target="F3xhZ0yxzu9XNyZ04QvM-2">
          <mxGeometry relative="1" as="geometry" />
        </mxCell>
        <mxCell id="F3xhZ0yxzu9XNyZ04QvM-10" value="LAN Switch" style="sketch=0;points=[[0.015,0.015,0],[0.985,0.015,0],[0.985,0.985,0],[0.015,0.985,0],[0.25,0,0],[0.5,0,0],[0.75,0,0],[1,0.25,0],[1,0.5,0],[1,0.75,0],[0.75,1,0],[0.5,1,0],[0.25,1,0],[0,0.75,0],[0,0.5,0],[0,0.25,0]];verticalLabelPosition=middle;html=1;verticalAlign=middle;aspect=fixed;align=left;pointerEvents=1;shape=mxgraph.cisco19.rect;prIcon=l2_switch;fillColor=#FAFAFA;strokeColor=#005073;labelPosition=right;" vertex="1" parent="1">
          <mxGeometry x="141" y="166" width="50" height="50" as="geometry" />
        </mxCell>
        <mxCell id="F3xhZ0yxzu9XNyZ04QvM-12" value="Firewall/Router" style="sketch=0;points=[[0.5,0,0],[1,0.5,0],[0.5,1,0],[0,0.5,0],[0.145,0.145,0],[0.8555,0.145,0],[0.855,0.8555,0],[0.145,0.855,0]];verticalLabelPosition=middle;html=1;verticalAlign=middle;aspect=fixed;align=right;pointerEvents=1;shape=mxgraph.cisco19.rect;prIcon=router_with_firewall;fillColor=#FAFAFA;strokeColor=#005073;labelPosition=left;" vertex="1" parent="1">
          <mxGeometry x="141" y="80" width="50" height="50" as="geometry" />
        </mxCell>
        <mxCell id="F3xhZ0yxzu9XNyZ04QvM-13" style="edgeStyle=orthogonalEdgeStyle;rounded=0;orthogonalLoop=1;jettySize=auto;html=1;entryX=0.5;entryY=0;entryDx=0;entryDy=0;entryPerimeter=0;startArrow=classic;startFill=1;" edge="1" parent="1" source="F3xhZ0yxzu9XNyZ04QvM-12" target="F3xhZ0yxzu9XNyZ04QvM-10">
          <mxGeometry relative="1" as="geometry" />
        </mxCell>
        <mxCell id="F3xhZ0yxzu9XNyZ04QvM-14" value="&lt;font color=&quot;#000000&quot;&gt;Internet&lt;/font&gt;" style="sketch=0;outlineConnect=0;fillColor=#1ba1e2;strokeColor=#006EAF;dashed=0;verticalLabelPosition=middle;verticalAlign=middle;align=right;html=1;fontSize=12;fontStyle=0;aspect=fixed;pointerEvents=1;shape=mxgraph.aws4.internet;fontColor=#ffffff;labelPosition=left;" vertex="1" parent="1">
          <mxGeometry x="127" width="78" height="48" as="geometry" />
        </mxCell>
        <mxCell id="F3xhZ0yxzu9XNyZ04QvM-15" style="edgeStyle=orthogonalEdgeStyle;rounded=0;orthogonalLoop=1;jettySize=auto;html=1;entryX=0.5;entryY=0;entryDx=0;entryDy=0;entryPerimeter=0;startArrow=classic;startFill=1;" edge="1" parent="1" source="F3xhZ0yxzu9XNyZ04QvM-14" target="F3xhZ0yxzu9XNyZ04QvM-12">
          <mxGeometry relative="1" as="geometry" />
        </mxCell>
        <mxCell id="F3xhZ0yxzu9XNyZ04QvM-16" value="NGINX Network" style="sketch=0;points=[[0.015,0.015,0],[0.985,0.015,0],[0.985,0.985,0],[0.015,0.985,0],[0.25,0,0],[0.5,0,0],[0.75,0,0],[1,0.25,0],[1,0.5,0],[1,0.75,0],[0.75,1,0],[0.5,1,0],[0.25,1,0],[0,0.75,0],[0,0.5,0],[0,0.25,0]];verticalLabelPosition=bottom;html=1;verticalAlign=top;aspect=fixed;align=center;pointerEvents=1;shape=mxgraph.cisco19.rect;prIcon=l2_switch;fillColor=#FAFAFA;strokeColor=#005073;" vertex="1" parent="1">
          <mxGeometry x="240" y="450" width="50" height="50" as="geometry" />
        </mxCell>
        <mxCell id="F3xhZ0yxzu9XNyZ04QvM-23" style="edgeStyle=orthogonalEdgeStyle;rounded=0;orthogonalLoop=1;jettySize=auto;html=1;startArrow=classic;startFill=1;" edge="1" parent="1" source="F3xhZ0yxzu9XNyZ04QvM-18" target="F3xhZ0yxzu9XNyZ04QvM-21">
          <mxGeometry relative="1" as="geometry" />
        </mxCell>
        <mxCell id="F3xhZ0yxzu9XNyZ04QvM-18" value="Podman Rootless" style="shape=image;verticalLabelPosition=bottom;labelBackgroundColor=default;verticalAlign=top;aspect=fixed;imageAspect=0;image=data:image/png,iVBORw0KGgoAAAANSUhEUgAAAgAAAAIACAYAAAD0eNT6AAAAAXNSR0IArs4c6QAAIABJREFUeAHsvX+sbXd1H3ieRBQrohDEaOqCaF0Ennf3uREIVxOXRB5LnlpFQhNE/YdljaijCg9RwRBHM57xVMamFN997RdSSwEBDWfvaz/i4nGQeRjqoPTJdZjEah1Gbie1w1i4GXlsq7HGDHWkPvX1TD7n3c9l3XW/v/fe5+xzzjrS0drftdZ3fdd37b3X+u7vz8nEfmYBs4BZwCxgFjALmAXMAmYBs4BZwCxgFjALmAXMAmYBs4BZwCxgFjALmAXMAmYBs4BZwCxgFjALmAXMAmYBs4BZwCxgFjALmAXMAmYBs4BZYGgL3HXF7LK73valn5H/+9/14Jv0/3On27e6/vvV7HLX/8zuV98h//ecnl1x7P9zZ995z8+dfef+ztl3y3+9e7Aj//fuHOzq/341ey//951urtL/emd2te+/t9Nc4/qjzKFtbfLNAmYBs8AJC8CZ1dXBx+qd9jPyv1+19/j+9bQ94/rv7bb3u/7704Mv6H89bb/s+u9VzUz+62r24In/tP1azf9u+/Va/nfaR2r9n7aP1o7/3k77OPCAvv/+zsF5/a+nzZPuf/tUPXX8d5una/2vmmdq7799tq70v3m+rvS/faGu1H86e7E+9m9erqfqXzWv1o7/3rT5Ef911fy43p29fuw/bf+83m3n9u/fBrA73pETL6ghzAJmAbNA3xbAl80ieIQcetVc9Dr7EC0kcx1p21TXdbw/G6QzGqLoGen7fTd5ZgGzgFlgYYG6aq6r7WvOvmQ3KHB6G6rrWMed9hFzVWYBs4BZoHcLYOzzUvdu/92YG+WE1zFwmM4b06jbr9o7en/5TaBZwCywvRbAZKvF2LIFio0JFNbo2tCGLIadqua67fVWVnOzgFmgVwssJsdZ8Lfgb8/AWjwDmBiIHrtenYAJMwuYBbbPAvW0vd2+Fjf0a9EC+loE9KL3r2qfRc/d9nksq7FZwCzQiwWw9ri2meybGySsAbDR9xYrA3pxBCbELGAW2C4LYEOUxZpvCxIbHSSKvi7tmViPZ2IxH6D99HZ5LqutWcAs0MkCWE+82GzGHP16OHq7T3affM9A1Vy8r2o/0MkhWGazgFlgeyyw2EHP51AMb8HGnoH1egaq5sc2KXB7/LfV1CxQbIH9qv1ESbcwtr2tq/bT+o91ycABuv6LSYaYaOj431u1t8X+0Df0X2xXjC2LA//9anYz6ICp/73p7KbUfz1tb0j571XtL4X++JJL/S82bcLGTYG/a395jfPtT6/xem97meYe+BLqvfJlWu6rr6/lHvy8RnA7+uv9+w/Tco9/ee06E0DjXOcJSJw+g0Cm5XkFJ65xpkHm7n24/yXvJ5bx2qTAYrdoGc0Cm2+BhVMvmfRXNc9vkHM5NZlM+I/d9FS+mJwc+raUmWOTreJdNKoLemEOJwXi+bGfWcAsYBb4iQXw1bM4/CXXsSwOf7FTyX5iSbsyCwxvgeK9OSqbFDj83bESzAJrZIG7JuffsDiNLjf477Zzm2C0RjfaVN0YC6DHrWh3TpsUuDHPgFXELNCLBXCcaMm4Io797UUBE2IWMAtkWwDzHrDrX/a7a7122ba2DGaBjbQAJrJlO5Dddm7jiRv5OFil1swCh5M8/cdv+3r1NmvezprdNVPXLDACC2Cmdl3NLmQ3AKr2Bcx0HkEVTAWzwNZbIHu77sOJvtaI3/pHxwywrRbAMqZ6OnsxP/jPLmDJ1rbazeptFhijBYomBaIhsNN+Zoz1MZ3MAmaB4SxwarFu39c9GMBjyGA4tUyyWcAsUGKBS5MCm2eyG/Q2kbfE3JbHLLC+Fqin7ZkSR7G3296/vrU2zc0Cm20BbHBkkwI3+x5b7cwCnSyw2JEu8IXvbBigq3DaPoXlgp0Kt8xmAbPAoBboMinQ5vUMemtMuFlgtRa4tK3q7HVnkA81CqazF7FR0Gq1t9LNAmaBFAssJgUW7OhpkwJTrGs8ZoE1tABa93XVPJ8d/KvZBawWWMMqm8pmga21QNGkQHwE2KTArX1mrOKba4FTaN1nB384hOrgY5trFquZWWAzLdBlUiAOpNpMq1itzAJbaAG06kuC/17VzLbQXFZls8BGWACTAuuqeTX/3ccwoZ3vsREPgVViuy2wOD60YDyw3m2etkl/2/3sWO3X3wI43rkuef+r5nmbFLj+999qsMUWwF7h9WLf73ae9RVQNa/apL8tfnCs6htlgXur9ras9/9wQrBNCtyox8Aqs00W6HJaGL4atslWVlezwKZboJ62XytpBNiBX5v+ZFj9NtICRbOAq+YivhY20iBWKbPAFlvgritml9VV2U6BNilwix8cq/r6WSD7cBDuAbDTPrJ+tTWNzQJmgRQL2KTAFCsZj1lgjS3QYdLPMxg2WOOqm+pmAbNAxAId/INNCozY1shmgZVaoLSFj/3DkXelylvhZgGzwFIssF+1nyiZD4BJgbYyaCm3yAoxC+RZoHiMD0uEqua6vNKM2yxgFlhjC5yySYFrfPdMdbOAtkBdzR4sadXvV+0dWpalzQJmgc22wOKDYbd5usRn2KTAzX42rHZrZoHSLr162j66ZlU1dc0CZoGeLIC9Pkp3Crx352C3JzVMjFnALFBqgXpndnXpTl+Hk/5OlZZt+cwCZoH1tkD5pMD2BdspcL3vvWm/5hZYtOCnzcvZ3XiL3QFtr+81v/2mvlmgFwuU9iDaToG9mN+EmAXyLYDZuPW0fSo7+O+2c5wPkF+i5TALmAU21QKlkwLraXtmU21i9TILjNYC+9ODL2QH/6q5aFt7jvaWmmJmgZVZwCYFrsz0VrBZIM8Ce9PZTdnBf7edW5ddnp2N2yywTRYoHlLcnb1ukwK36Umxuq7MAvedbq6qq9mF7AZAZZN2VnbTrGCzwJpYoHxScfvC5063b12TapqaZoH1swBesHo6ezE7+FsLff1utmlsFliRBerq4GP5Pqad19PmyclkYquKVnTfrNjNtsCp/Z2D82UvZnvDZpvGamcWMAv0aYG9qpkV+hqbFNjnjTBZZgFYALNt7YW0Z8EsYBZYhgUWq4wKdwqsp4sPDusJWMaNsjI23wJ4oUqCP3oM7PCOzX8+rIZmgSEsUDwpsJpdsEmBQ9wRk7l1Fqh3D3bq3dnr2Q2A6exFm5SzdY+LVdgs0KsFLk0KLJt0bP6n11thwrbNAthqs66a57ODfzW7gNUC22Yvq69ZwCzQvwX2q9nN2T5o99KkQOuB7P9+mMTtsMAprNsvefHwwm6HiayWZgGzwDIsUE/bL5f4ItspcBl3x8rYOAvUO+1nCl+4L2+cMaxCZgGzwEot0GXr8cNJgSvV3wo3C6yNBbBXf9EJf7vN09bltja32RQ1C6yVBYr3IalmF/ar2XvXqrKmrFlgFRa45+fOvrNenNbXzrN6AKbNy5i1uwqdrUyzgFlgOyyAQF60E6lNSt6OB8RqWW6Bu972pZ+pq/bZrMCPyTZVcxGzdctLtpxmAbOAWSDNAjYpMM1OxmUWyLJAvdM+kh38d9s5zvPOKsiYzQJmAbNABwsUnUaKA8l22/s7FGtZzQKbaYF62t5eEvzravbgZlrEamUWMAuM1QI9TAq0nQLHenNNr+VaYG+nuaZo0l/VPINzvJerrZXWkwWumEwm1xz+/7u/OETlbvF/YjKZ6P9rk8lk3uP/h44yUKbUA8tJqaNN4urpxm+KGJsUuCl30uqxMguc2f3qO+qqeTX3639v2vwIeVemuBUcswACpwzsDOh9B/I+GwWpsr5/2HiYHTYYPnXYUECjxn5bZAGbFLhFN9uq2q8F8PVeV80zucF/0VtQNdf1q41JK7QAAj0C4OcPgyK+rFMD6abysYGA3gQ2DgrNa9nGboHSs0rqafuULVse+901/QazAMbvs4P/pUl/dwymlAkOWYDBHl++CHKbGsCHqhds9uhhr8E1b5m85c0hYxttfSyAyX0lvswmBa7PPTZNe7QAZu6XvDD1tIUDtd9yLIBxb3zBwuZDBcVtl4tGAXpPMFxiQwjLea57L+XSpMDmyRKfZluX9347TOCYLXDphK3mYvbLUrXPYq+Av/iCshm0w91gBCJ84W/CWP06Ni4whMIGwXB32ST3bgGbFNi7SU3gplmg/Izt5sfYJXDT7DGS+ljQH2cPBxphaIzdbMMFI3lTImrYpMCIgYy8vRbosnYW5wNsr+UGqTm6mzFJzSbtjTP4u3ov0Bi4dpCnwYT2ZgGbFNibKU3QJlmgdPcsnAy4SXZYcV0QQBBIXAFmpbj3ve99c/5vueWWuf7feeed8y996Uud/5CjZSPNsgHf+MY3rtQWkfuDRpv1Cqz4RQoVXzopED4yJNdoZoG1tMDedHZT9pg/ts7caR+3Mf9ebjk2tVnJ1z4D64033rgIvGfOnFkE8bNnz87/5b/8V6P/P/roN48aHWw4XHPNNYsGw5VXXrnKhgKHCGzyYC+vSH9CbFJgf7Y0SWtugftON1cVnaBVtS/c/64H37Tm1V+1+ksJ/AiECPQIkPxSP3/+fHJwf/rppxe8Y4WxhgobCbfddtvCBrDF5ZdfvszGAXp1rCGw6rdNlL+YFFi1L2R/+NjxwcKKdrnWFiieGbs7e/3enYPdta78apUfLPAj2H/wgx+cI9ihSz4WHGNBPZZ/DPQudYCNYCvYDA2DSPd+V7o1BFb73h0rHT6s6OPHjg8+ZkdLrKcFTu3vHJzPbgHjiN9pe8N6VnnlWvce+PEli+57dN2Hvup9QTIlgPvyjgXfpQ6uvGgUoLcEQwkDzTeY2cqBlb+LCwVsUuA47oNpsWQL1NP2TGHwP7NkVTehOGzag/32u35BLvIjMKErH13brgCmA7OLhzjNq9PkGzPUOut0SPcUXsyHQC9Bz3MKMEcAGznZb8UWKPWFNilwxTfOii+zQGmrFz0Gtj92us0Pv/KwcUznwI/ggyAkg74OXky7Ah5pGrp4NU7nGVta6+tK+3RO4ZU86GVB4wuNsD7u6+G2zbZ8MP21GoLzVD21nQKHMKzJHJkF6t2DnXp39nr217+Ne+XeSXT3d9qxD93PGJvWM/IZzGRgktekE0qaviaPD2r+MaZ9uhMf0pk8hC5eHw2NMQwV9DSh0IYFct+wHvm7TArE7qk9qmKizALDWACz9uuqeT47+FezC1gtMIxWGycVs707dfcjoOArU4/p60DEtIahIJbCq/PrPGNLa31daZ/OKbySR8shDXMwephEiAaj9QasyCUsJgUWfRw1L6MBsSK1rVizQJIFTmHdfnbwX5zwN8PXrP3iFvhQl69+BBDXzH0GHQYbnSaekHRC4l2QPD7oyjM2nE934kP6kofQxZtDQ68Aem06Dg983iYJxl+2ITj2qvaXSnykHR88xN0wmb1ZADv2FT7YX+5NiQ0VdOisi3fwKw38DEwahoJYCq/Or/OMLa31daV9OqfwSh4tx0UDroeGAE4ixORR+y3XAqf2q/aeEl+5VzXwAfYzC4zLAtirv64KTvjbbZ62SX/Re4ku26Jd/DCxT3/xM8D4AgvwLh4Xf4xPyiKvhlLuWK+1zjod0juFlzwuOS6axOH+dhwawJkQ9luuBYp7S+vq4GPLVdVKMwsELIBT+uqq+XF2i3bavIzTAQOijTSZYGgku7sXk/swo18GFBk0iNc4X5p4QuaXkDQNJY/vWucZW9qnt8T7dJY8vNa8xAOm0CQ/r9EQ6DBZ8FEbEliquzl1ab5U2U6BNilwqffKCvNZ4K63feln6qp9Njv4o7fAZrb6zEp8UZc/xofl5D4GFAYKnZZBJ8RDmuR3yZJ8Ll7mIdT8Y0xTVx8M6azzuHjJk0ojP6HMh1UDhZsLYUjAthPm27cE2GVSoH08LeEGWRFhC9Q77SPZwX8x6a/9RFjy9lIPv8TgjLO+/F3d/TIwuIKFxvnSxBNKubwmTUPSQ1DnGVs6pDtpPp1Jl1Dz5tIkP68pE2nMDyjcR8BWCSzZ9RRPCrTh0yXfKSvumAXqaXt7SfCvq9mDxwRZQloAk7Kyx/uxVS8DASCDAaGLFsK58rn4Y3wuXZiHUMod6zV19cGQ3jqPi5c8qTTyE8p8EoelnoW9AbYqR76VA1/bpMCBDWzi+7XA3k5zTdGkv6p55q4rZpf1q83GSMte4ocxXznJTzp/GRRw7aJpnC9NPKGWLeWTh9DFq3HkHSvU+rrSPt1TeCWPluOiSRyvmU+n0RtQuMWwzThfnmuxSYHLs7WV1MUCZ3a/+o66al7N/frfmzY/Qt4uZW9w3uzJfujilWP9dPyADAaELloI58rn4o/xuXRhHkIpd6zX1NUHQ3rrPC5e8qTSyE8o87lwoGNuQO6w0mQysUbAkpxO+SZqNp9qSbfIisHXe101z+QG/0VvQdVcZxZ0WiAr+KNLF127Lqfvc/7gddE0zpcmnlCWzWvSNCQ9BHWesaVDupPm05l0CTVvLk3y85oydVriseVzwZCANQKcr23/yPJt1G1FVf93wySesADG77OD/6VJf3ecEGYIWCA7+HPffunY6fQJSSMkHjAF5+JxyYjxyfLIq6GUO9ZrrbNOh/RO4SWPS46LRhyhzOfCSTp6jQqGBJ6wZYLLcVidJgXa8OpybtI2lrJftZ8oCf71tH10G+2VUOesU/zgtEu6/On8XYFB43xp4gkpU0LSNJQ8vmudZ2xpn94S79NZ8vBa8xIPmEKT/LxmPp0mnpD0gu2Ev2+NgIS3ugeWDruqfq2H4k2EWeC4BbBmv2zSX/ss9gqYTCanjkvc+hTOaU8ek4WzpuMGpDMnlLQY3ZVH43Q6R36Ml7IJNf8Y09TVB0M66zwuXvKk0shPKPO5cD46NovKeQ5xtLA1Apbiuy5NCizYXRUfakvR0ArZDgtgw4l62ryc/fVfNT/GLoHbYaWsWmZ1+8sd/XzOnXhC6fB57aJpnC9NPCFlSkiahpLHd63zjC3t01vifTpLHl5rXuIBU2iSn9fMp9PEE5JOiFUkmfMCrEcv63UvY760yVrJyarNRazSKivVcpkFhAWwTz9OocoO/rvtHOcDCFF2eckCWcFfT/aj06YzJySekHhC4gFTcC4el4wYnyyPvBpKuWO91jrrdEjvFF7yuOS4aMQRynwunIsu+QomB9rEwCV4tMWkwJJt1qvmVdspcAk3aNOL2J8efKEk+GMMa9NtU1C/4uBPZ00oHTquiSfUdMkjaZrflyaeUMrgNWkakh6COs/Y0iHdSfPpTLqEmjeXJvl5TZk6TTwh6RpaI6DgjV5Clk4HrdmkwCXcoQ0tYm86u6kk+O/ttI/bmP+JhwI7/CWNt6I79syZM4sxf5/TJp5QO3PiCSU9BeficcmI8SEPeXxQyh3rtU934kN6k4fQxZtLIz+hlOnCuejkIwQPGgGZBwphIqv9BraATQoc2MAm/rgF7jvdXFVXswvZDYCqfQEbWhyXtvUpBH/ssR5tACD4c5lfyGlLGq7pxAk1XfJImub3pYknlDJ4TZqGpIegzjO2dEh30nw6ky6h5s2lSX5eU6ZOE09Iug8WLBNEz5b9BrYAPqyy/bGduzLwXdlA8Z873b61ns5ezH/YZq/jdKsNNElxlXIP9snd1tfn1IknlM4+BeficcmI8SEPeXxQyh3rtU934kN6k4fQxZtLIz+hlOnCuejk0xC82D44c2IgGrn2G9ACXU5etUmBA96YDRN9an/n4Hx+8G/n9bS9YcNs0Ud1nkj58gePb8IfHLLLSYecuqTxmjKYBtQ4X5p4QimD16RpSHoI6jxjS4d0J82nM+kSat5cmuTnNWXqNPGEpPsg+TLnBKCHy44S7sNjBGRgVVVdOCnQtmEPGNZIlyxQT9szhcH/jNnwhAWSN/ph8Kfz1VA76y505pUyNU6nJS+uSSfUdJkmjw9K3rFe+3QnPqQ3eQhdvLk08hNKmS6ci04+DSVvZiPA9gg44QL6RxRPCrSD2Pq/GZskEV/wJcEfPQZYLrhJtuihLskz/hn8pePV1yEnDd4YXfJI2cxHnC9NPCH5JSRNQ8nju9Z5xpb26S3xPp0lD681L/GAKTTJz2vm02niCUkPQcmb2Qiw5YE9OI+YiLpqP13iq+tpazsFxoy7jfTyQyhmL2LOwDbaLFDn5Bn/N95447HZ/nS8Gmpn3YXOvFKmxum05MU16YSaLtPk8UHJO9Zrn+7Eh/QmD6GLN5dGfkIp04Vz0cmnoeTlNValpA5l/cWEV+xyab+BLbCYFFiwU+C9VXvbwKqZ+HWyQPkxlLMLWC2wTnUdWtecSX84zpcONgZjTjpGh3zyyLI0zpcmnlDK4DVpGpIegjrP2NIh3Unz6Uy6hJo3lyb5eU2ZOk08IekhSF5C8GZuG2yTAgd2NjYpcGADb4n4S3tO77bz3C6l/Wpmy39OPiToAo1+LcmDfehkfdDlqDWv5gnRSZN5NE6nJS+uSSfUdJkmjw9K3rFe+3QnPqQ3eQhdvLk08hNKmS6ci04+DSWvvs44QMjmA5z0Db1jMClwb9r8KNd311Xzqk0K7P12rJ/A0rEk7BC4frUdXOMPpQR/LK/CMivtXEPpmJOO0SGbPLIcjfOliSeUMnhNmoakh6DOM7Z0SHfSfDqTLqHmzaVJfl5Tpk4TT0h6CJJXw8w9Amw+wOAuZzKpq+a6soPammcOD2pbgpZWxOgsUDybdLd52ib9nbidWAKVtNkP1/pr5+pLuxy15tU8ITppMo/G6bTkxTXphJou0+TxQck71muf7sSH9CYPoYs3l0Z+QinThXPRyaeh5HVdoxGQsUcAGsX2G9gC+1V7R3YvAHp9d9pHBlbNxI/RAsXrSafNy3bIhPOOJq33lyf7uZyrDxdz0jE65JJHlqFxvjTxhFIGr0nTkPQQ1HnGlg7pTppPZ9Il1Ly5NMnPa8rUaeIJSfdB8vkg8mFlQEpv12Gj2PYHcLqMfpEI5iWNAJsU2O99GL20LpNH6p3Z1aOv4PIVxKznqEN83/ved9Tt73OuPrx21povh868Mo/G6bTkxTXphJou0+TxQck71muf7sSH9CYPoYs3l0Z+QinThXPRyaeh5A1d33LLLdFn/vC9QOPYfgNboItft50CB745YxJf2lLcr9pPjKkeI9ElqesfXaboOqWzDTlWF435CDUP8YSajrSLpnG+NPGEIfnkIXTxahx5xwq1vq60T/cUXsmj5bhoEsdr5tNp4glJ90HyxSDyo1Gb0vidTCY2FLAEh2WTApdg5HUuop62t5d0E9XV7MF1rveAuj+a4gA57k+nG3Oums58hF3ozEtZgBqn05JX8sf4XLzMQ6hljzFNXX0wpLPO4+IlTyqN/IQynwvnopNPQ8kbuka+jDMDXjtcIjvgq2iiYQGbFGjPgdMC6OYpni1q50q7bJo065+b/cCZ0tmGHKuLxnyEmod4Qk1H2kXTOF+aeMKQfPIQung1jrxjhVpfV9qnewqv5NFyXDSJ4zXz6TTxhKT7IPlikPkzNgmyo4NdXmQAXPGHnk0KHOBujEAk1nxi7Wfu1z/WmNp60ZM38PBrJjrrH+v96SgljDlXTZd5ce2jY5gBvQ3441ryUgbzMp3K4+J3yZJ8UjZ5NdT8Y0xrnXU6pHMKL3lcclw04ghlPhcOX+p8LsBLHg2lnNg184IPjdyUnrDJZHLtybfJMENYoHSoF42HIfQxmSuywF1XzC6rq+aZ3OC/6C2omutWpPbYi0066Idd/3SWhDHnqunMR4hZ2JiEhTFY/N/+9rd7HTDmH4Dn2muvnd99993H9iCgPJbnSxNPSH4JSdNQ8viudZ6xpX16S7xPZ8nDa81LPGAKTfLzGvkQ6LHShM9FKCjjmeFzgTzcm0KX70uzXMCMpYE/HPuLvSn6XZoUaH5/U+5ncT0wfp8d/LFG1FqCPptj4p834JImu/6ls8S1z6n68MgDB33TTTcFgz3LjkH0TLicPvWkHkxrSDqhpss0eXxQ8o712qc78SG9yUPo4s2lkR8QjcGhnguXrsRRB6YzhgLsrACfZ+kZj97bkp0Cree35xuxKnGYuV8Y/DG5zX5uC0TX/F9++eXHZv3TWRLSaaZAfLUjYMeCeikd27vqrz/qRX01JF1CzcO05PFdk3es0Ke3xPt0lzy81rzEA6bQwIfeJXzBl973WD7IRhlaH6aps0wn6mMTAt1+ZRCsTQocxKzjF4o1+2WT/tpnD7eIPDX+Wi5dQ4xhRp0uvoboIF2QTjMEEZQTHWpUnxSd8RXpmzeg66D11nSZ1rw6LXnHeq111umQ3im85HHJ0TQ8Fxl78nd+NuRzIfXTeiEN3RJ3Cbx76W/uFheIzX6KPgRtUuB6PjXYra+eNi9n3/Sq+THWkq5nrZei9fdjwVSe8kcnqaF0pK5rdM8nOtLODl7WB2XeeeedR40XrTfTLp1J09DFq3E6z9jSWl9X2qdzCq/k0XIkLWPznd6fCzZqqR/10mk8u/KZClzbDoFLcVmLQk7ZpMDlGXulJWGf/nraPpUd/HfbOc4HWKny4y4cpx9GnRu70+kgXZBOU8Nz584t9avfVx989bn0Jk7rTbwLal6dduUZG07rrNMhfVN4yeOSAxp6Zpb51e97LjCR1NdLJOuAITCfDIFvx/26b5Z2Nilws+6ntzY4qa8k+Nc77We8QreccLjsDzOYg44NX2hw4nSGPuhy9JjMtYqvfl+dXM6e9XHpT5qGLl6N03nGltb6utI+nVN4JY+WgwblkHNAfPffh4cubARAb+or64C5A778Cm/LApfoW7ssB7ee4SXeqNKi9qazm0qC/95O+/hkMrExf7/ho/v9I3hLxygdor6m0yREvjEFfzppOHtXjwb1JtT1k2ny+KDkHeu1T3fiQ3qTh9DF66ONrVEonwv9rOs6JM5fsXMC/D5nEEr5hnBHc8MG0cuEdrTAfaebq+pqdiG7AVA1z9//rgff1LH4Tc8e/frH2CedO52hD5IPEI797KY8AAAgAElEQVS09AsPXa1YboieB3x1MVhDJtL4Qy/MSyhtYCAfAhF0ZX2k/rwmTUPSQ1DnGVs6pDtpPp1Jl1Dzumhdgj+fC4zb8zlgGXhG+FxgWKH0uUCAh0zWhfKZhv5sMESgzQVYsve0SYFLNvjQxX3udPvWejp7MTv4785er3cPdobWb83lR8f+4XDpAFMgnWRJ8IfDhuNmUE4pjzwICCVjybIRAFnUn5DyXZA8PujKMzacT3fiQ/qSh9DFq2klwR/3CA3B0HOhy6Eupc8FniXKcMlOfNZsLsAKHGQ9bb+WHy/a+X7V3rECda3IgAVO7e8cnC+5mfW0vSEg10iXLBD9+tczpOkMfRBOsyT4w8EjH50uoa8cjSc/vgATu2iPvuIQYFxlU6Yui2nSQ5C8Y4Uh3Unz6U66hJpX0mBj2Dry1XyMjl4g173xlePDo3cAvUU5ZctGAOtB+ZCXKMt6AZbsbW2H2CUbfKji9qv2nsLgf2YonTZIbu9f/3SSiV9HCweKHgYEbeYFpJOVuNi1zgOZqcEmtDwwVC7L9MFQ3rHQfLoTH9KTPIQuXk1DQy8lcLrmaGhZsjwfTeNzngvoyeEvLQdlJz7n1guwAqdpkwJXYPQ+i8QXfEnwR4+BTfpLuhPRr38GRjq/FIg8KQ4ePHCg8uuO8l2OnTQfZB7SkcZXWmwOgq4j5UhImRpKHt+1zjO2tE9viffpLHl4rXk1HulY4MSXeu5zocuhHhqPNGTHngv5DOuhB8q2XoAkP7MyJpsUuDLTdysYY/f1Ygy/nWc1AqazFzFnoFvpW5E7etxv7tg/HGuGQ1wEATpnDelgNT6U1nmYhrP3BRwGfymX+QglTV+Txwc1/xjTPt2JD+lMHkIXr4/muyfoIXDJAc4nK0Tz5cFzkTokgJ4kXxm+esgGxGQyseOCV+RWS7eMP1w9tiKtt7hYzNqvq+b5rMCPA36q2QWsFthi0+VUHechBL/UGRzpQFNhym5pcJrSyWvZIZrmZZp5dJp47ah99SO/hJSpoeTxXes8Y0v79JZ4n86Sh9eaN4T33ZNQnhgtp3zIivUEIPhzHgzLBmQ5iY1eHK9tvxVZoGhSYNVcrKv20ytSeWuLPYWWV3bw323n2Cdga62WV/HoiX8lX//SOaLLFDJcjQwusZJOVOYN4TWfTNMhE8c0IfAMOAz+5JWQ/ISSpq/J44Oaf4xpn+7Eh3QmD6GLN0QDv74nIf4Smi8P8aHhAD0PgXl0PVkH1/MucJhzY78VWGAxKXC3eTo7rlTNRdtBdok3DC2u7Ju0286xQ+AS1Vz3onBYiTM4E88ASYeXC+Eg4Vj1bHx8TQFPeXSkTBMSD0hcDDIP+ZjWkBMOyaeh5kda8zDt4tU48o4Van1daZ/uKbzkCcngPSEvoc5DPKCPlouHLNfSRAR1lkeZOk088vPdCUCctWG/FVnAzpBZkeFTi0VLq+iEv2n7FM4ISC3H+CbojvQ6LAZpOruuUM769k2m0mXQsWp8KK3zMK1hSAZoOfyaV6djZY2BrnXW6ZCOKbzkCckhjbyExBP68KD7aKl4NHrxXuD5ZwOY5RL6ZIGuG7ued+y95n9WZ4EeTpFdnfKbXDL2Yq6r5sfZX//T5mW07DbZNj3XLbr0T375SMdK55cLIQNfeNKpUoZ2rBqfU76WxbSGLMMHNT/SObw6vy/vWPBaX1fap2sKr+TxySFe8uKaeEJJJ46QNKYJY3hZDhqrspFKGYQ+WaCzAeEJ/Gxw25LAnh1arriOkwJtS/lcg8f4L53k1D6bHfwxSWNndnVMvtGPWQD7k9MZOSEdoHZ6dH5doJap05Ttw5PugjoP0xq68kpcDr/m1Wkpd6zXWmedDumdwkuekBzSyEtIPKEPD7qPlotnWS7ok0Ve9B5E3q/XDg/fOvZSWmK5FtirmllRvLFJgf3fqNKznNGS61+bjZYYnfwnJ+jRqQHS8XWFlEk5Oq3xOWVrWUxryDJ8UPMjncOr8/vyjgWv9XWlfbqm8EoenxziJS+uiSeUdOIISWOaMIZ3lcO8GvpkkQ+7FkYaAKDbZMAVu9nFsfI2KXDFd2EymdTT9vbsltilJX8Prl77tdMgeuofujHpzAjp9PqAWqZOswwfnnQX1HmY1tCVV+Jy+DWvTku5Y73WOut0SO8UXvKE5JBGXkLiCX140H20XDzLckGfLPImLgnEElz7rdgCXSYF2hkzPdy88l2ammewrKMHFbZNBGYhe79Q0H1JR6YhHV9XSLmUo9MaDzpxMahlMa1hqhyZz5dH8viufXnHgvfpLfE+XSUPrzUv8YCaptOS18Uv6b68uXhXOVoG06HyyZOyuZANA4zD9V6aFFh2yiyGrsdRizXUonSf5rpqXkXeNazyqlWOdv9z8h8dGaF0el2vtUydpnwfnnQX1HmY1tCVV+Jy+DWvTku5Y73WOut0SO8UXvKE5JBGXkLiCX140H20XDzLckGfLMmbOBnQhgFW7REPy6+rg4+V9EIf7hRokwJz72OXk5rQa5BbnvEvLBDt/ufkP+nMeE3H1xVqeTpN+cQDEheDzEM+pjUk3Qc1P9I5vDq/L+9Y8FpfV9qnawqv5PHJIV7y4pp4QkknjpA0pgljeFc5zKshZYXyYJ+LUE/bIc32BBiRYy6eFLjTfmZE1VgPVepq9mBJiwvzBdajhqPUMnjwj9z5L+T0pAMsuaZs5tXpGJ50F9SymNbQlVficvg1r05LuWO91jrrdEjvFF7yhOSQRl5C4gl9eNB9tFw8y3JBnyzNm7gzoB0TPBJXuZgUOG2fKolLtlNgxk0s7W7BSoGMYoz1uAWw+UjwqwSzl7UTk2k6vq6QMilHpzUedOJiUMtiWsNUOTKfL4/k8V378o4F79Nb4n26Sh5ea17iATVNpyWvi1/SfXlz8a5ytAymWT7TPoizA2Lv3GQyQa+c/UZiARwiV0+bl7MbAYv9aw52RlKN8apRPuGifdYmXHS6r9Gtf9n973NodHxdIeVTjk7H8KS7oJbFtIauvBKXw695dVrKHeu11lmnQ3qn8JInJIc08hIST+jDg+6j5eJZlgv6ZLl4E/YEwJ4c9huRBcpjVPM8DrEbUVXGpUqXJRfYJXBctVk7bYKb/8juf5cjA46OryukfMrRaY3PKVvLYlpDluGDmh/pHF6d35d3LHitryvt0zWFV/L45BAveXFNPKGkE0dIGtOEMbyrHObVkLJS8qQMA9hqgPH50v1qdnN2LwAOo9tpH59MJjYpUN/S4vEVO4lJmzI7fehggt2R7P7Xzo5p6fS6XmuZOk35PjzpLqjzMK2hK6/E5fBrXp2Wcsd6rXXW6ZDeKbzkCckhjbyExBP68KD7aLl4luWCPlku3sRhgA9lv9SWYXAL4HC5kkZAbZMCT94bM+ZJmywRAwcTbAD4TmKTTo2OryukTMrRaY0HnbgY1LKY1jBVjsznyyN5fNe+vGPB+/SWeJ+ukofXmpd4QE3Tacnr4pd0X95cvKscLYPpUPnkIQRv7N2bTCafX6IvsKISLVD80YqegKr9pcRiNp9tbzq7qaQlZd0pvT0bOHzE64jk5j90XBpKp9f1mrIpR6djeNJdUMtiWkNXXonL4de8Oi3ljvVa66zTIb1TeMkTkkMaeQmJJ/ThQffRcvEsywV9sly8wCWcEIjVOfYboQUuTQqcvZgfv2av206Bk8nk3p2D3boq22XJJlT09kYEl/9h1zKf85J4Or6ukDIpR6cl/jtfOj9/+B98Z/H/0t95eI7/b/7thxZ/ph/61GPzb9zz+PyJb3zvqB5SBuVLSLoPSl5e5/AyD6Ev71jw1DMEfbq68mheyaNpOi15ce2if/fsE4tnAveez8E//m++5nwuwEuZLlk+muZlOpf/tttu8za+RcPclgP25u76FbRfzd5rMazApovWU9W+YK2nAuP1lyW6/A8OyuVo6fAI6fi6Qi1Ppp964qn5uX/8e/Pf+u8fmZ/5rx+Y5z47yPPALY8uZITqFKsDdSIM8ZPHB0N5x0Lz6U58SE/yELp4QzTNT15C0Pt6LmQjEXJlGVoPXzo3D1bXiEDvu7blgP35vN4l2aTAfJOe2t85OJ/rwBf80/aG/OIsh8cC0d3/cHiJz9lJPB1fV0iZlIM0HDy+9IueFxwM5fjjixAyIZtlErJsHySfhDm8Mh+ufXnHgtf6utI+XVN4JY9PDvGSl89FSWPQ9UwAh+cCjUxZDq5ZfgwyX4yPdPBjlU2kEWCHA3kc2FjQpfPY9qv2nrHUYWl6oNK+FzCIn7ZnlqbkdhQUHP/n8j86Kx+k0+sDsgzKQvd9nw5eP1+QTYevy6YOGpKPUNNlmjw+KHnHeu3TnfiQ3uQhdPGGaJqfvGi8DflcoCGAISZdfixN/WJ8kp6wHNDmAYzcH9ukwMQbVE/bG7QTTkmjx8DWUCYaOZ0tOP7Pw3+ks/Jd0/F1hZSP7liM56c8G33wYKyYvQGxOlBHCX15JI/v2pd3LHif3hLv01Xy8FrzEg+oaTq97OcC8whS9KKeOXVhnsTDgWweQLpfWwmnTQqMmB0zH+tdzIB0d8t68dPZizBuRLyRMyyQsv4fjinF+Umn1/UaThFOfsivO99zhjL1OLCrPnTchC4e4sjjg+QbM/TpTnxId/IQunhDNMmPnhrfvRsMXzUXZeNQ6uO6Tq2LzIthtsgQAOi2H0CGf1sVq00K9FgeW/XWVfN89otazS7cd7q5yiPW0OUWuDbmdLj9r3RWvms6vq5wJU5eNEjRCODMcF9dXDbI4dX5fXnHgtf6utI+XVN4JY9PDoaCsn2HuK9d82JIAI1Dn37Esy5Mp8KEbYFtP4ByX7fUnKW93Ju8tP1UPW0fLXkJsU/AUu/e9hQW3P8/Zf0/nRudXle46uAvn0/OC3DVifUmdPEQRx4fJN+YoU934kO6k4fQxRuigR8rN+S9WdU1GoexeQGxurjqD1zCfgB2LsAa+ea93fb+kud0IycF1lX76SJjTA++sEb3fN1UDe7/D4fkc1YuPB1fKYRjLXlGkOeWK/7n+Q1v+3vz//a//ND83T+zu/jj+oOX37Sglcqls9d1yqm/i1fjtPyxpbW+rrRP5xReyaPlPHzHY0XPxd2nv7i493gO+Fy8/61/a3GN5+LWd/7DIrkcJtJ6Ms26MJ0Kb7nllpRhgHXzMVur76VJgc2TJb5no3YKrKvmurpqLmYbYto+BSNu7RM0fMVfCw0BwCHBmaU6MDq+Evi9x/8gOuaPyVjf+8L/MX/+9/90/v/+3//f/PX/8Ppi0t7e3j+a46yCn/6py4IO9H0/+4vZjQE4e+im66RtoukyrXl1WvKO9VrrrNMhvVN4yaPlxBqFuD/f+Affnf/BA5eeCzwTeDa++93fm2P+yvXXX3/0TLieD+DwXPwvp89kNQYwOZUTRrXOvrpoPp3Gdtuh9/GQhn077LcmFugyKRCb5K1JNf1q4pS+vWnzo/zg37yM0wH9ko3S0QKYURx0OCn7/2snRueXC0Oz/b/8gd+Zv/R//tk89nvuT36Q0o266B3I+fqDbqwn68W0hKRpKHl81zrP2NI+vSXep7Pk4bXmJR6QtFij8IGPfGsR7GPPxRNP/Iv5FVf89eCzjncBPUc5DQEMS0h9qTfrwnQqPH/+fFTHyWRyc8f33rIv2QLlkwLbF9Z6t9tLk/7aZ7ODP3oLdmZXL/k+bVtx0QOA4JBcDs7n0Oj4cmFofPe7n31qfuE/Xoj5+CP6xYsX55/97N3R3gA4fHQHpz6bXArGumkbEO+CmlenXXnGhtM663RI3xRe8kg5vkbhmaseWHzxH930hIvXXntt/tGP/nI0wKJHAENJqc+Fa56Iqy6yXqHrK6+8MqajTQRcQ0/dZVLg2vaC1zvtI6kv0hFf1Vzcr9pPrOE9XjeVgxMAuQFQyFm5aHR+qdDbxVs1F8/f968SXLubJbE7dfHVh7Hio+fPN2u8ai5iZQDrlVN3F6/GUe5YodbXlfbpnsJLHsoITQZ95nd+4L7pCdjEcfbFsED0mTh8VjhERN1ZF0DiUmHChkA2EXDdPO0lfTEJ/kzqM3WMbx03v7u3am87VgmfY9X4avbget7ftdM6OAGQBwClOi7ySeeXco311a7nBF9/OV/+Lt+POsSGOUB/22V/dZ7SCICurBPrS0i8C5LHB115xobz6U58SF/yELp4NQ1L7lzPBbr9u/wwR+Dtb3970nOBuQEuHTSOQwGsl64L8Skw8WCgtXM2pvBksjWTAvd2mmuKJv1VzTN3XTG7zB6WpVggaQJgitPSPHSAMYg11dqZLtLTdv7CH73Yxc8v8v7why8kDQWgEZDq7Lk/gK4z0r76ung1zpd3LHitryvt0zWFV/L41vuj6x8BvOvv8d/93aQGQOowESYiYkIg6y/rQlwqTOy5somAS3GR/RfS5QC8tZgUiIl7ddW86nTs+mtfpqvm1TO7X31H/yY3iQ4LJE8ATHVc5JPOL3btG/vv+pUnAwRWB6T0AoAHS8Nizy1OIUS9WF/CUF3J44OhvKm0733vf59/67Fvzw8eOJh/8Yu/Of/1X9+fY3UE5kPceef/Or/jjtsX18CBdv/9v7HgxQ50T/7+7x/Vx1eeT3fiffmAJw+hi5c0BFIEVNd9wHwQzPHo47ezs5P8XGCJqUsficNSRdaLdWE6FyY8rzYR0OHU1gWFQF52fHD7wqh3w8XXe73bPC1fjKTrqrmIXoN1uYEboGfyBMBc50XnF4MYN/U9G3D0ff0Q6BIc6hFPyixwjvlq2/jqrPlcaV9eFx7B/hvf+J1FoEdw//jH/4f5zTff1On/K79yy6KRAHs99NBDi0YB9GT5Lp01jrwaaj4pl7zk8Y79V83FLmP/+nn65V/+yNE9jz0fP/uG/yI6RIRGC+tAyLrlQpsIuAEeNlKF0kmB9bR5crTn4dTV7EGfUw/ip+3tEXsZuV8LJE8AzHVedH4xGNrc5bnHX9D+ujgN/WMOXtJThgL4tadt46uz5tNpXz6J//Z3/tniq/1Xf/VTnQJ9TkPhk5/8+4veAvQSaJ11Wuqqr1N4yePrFYL/wPr+vnoA/slvfSXrucBGQkEftttmnyip7cR0wtwVmwjYrz9cibSNmhRYVwcfi70gTvpO+8hKrL/dhSZNAKRDyoF05DHoW+JFR18c8VVGBAzXBjAy6OvrWC+AnAwobeOrs+TxXbvyYhkmuvOXGfR9DQT0MqB3AOPnOXVI5SWfr/sf4/99/v74j/9tVgMAvQBO/8VhzKq5GFsq6rrHqLfGJ65U2G4Pthm1P4Uv+uBzxedLw2l7w2hMgDX7hWMaz2KvgNFUZHsUSZoAqB1TLE0nngJ9Dz0CQN+/hD3WjwWDlLkALsftq3eu3X7vn//zxfg9uql9AXmV+LvvvnvREND1Sq2/iw+yMMHS91z0OS+Ez5du+MXSH/mrt3r1g95sGNIurnqm4Gwi4PY44uJJgdXswigmBS4m/U2bl30vrhdfNT/GLoHbc6tHU9PkCYApzkry0PHFYMjR19O2l5nedPKAb/7ZtxwL8DFHj2WB3uf2sCXuWg3gq7e0keua+RD4MWlvlcE9p2zMP8DQBOvEemhIuoQuHu+w0LSdo8eozx9WiMSeA0lHLxJ2Cow9F6E66jr70rYj4Gh85VIUWUwK3J29Hnu2TtCrFU8KvLSusX3qhGK6u0Knq+bifVX7gaVY1wrRFogeAZy7AyAdmXR+oWuvoz98TrDXf1+/f/enf5rl6On0Y8MAeh5AqL60jw/+wR/+4WKsnV/8hDnBeJW8WFmA7XZ9NtD19vFhhYXXl/TcMMS8Bt7rVBgdBthtj46R9tUxFY+NuCJ6YR6P/TbEAjj8x/vs6/gp038xKXBlOwWWHneIkwE35L6tYzWCEwDlEcCpzop82tH70kFHv9sujlvtqwFw7ty5mCN10mNLv9gAYN0BffWVPPp6NpvNMQN/lQG8j7Kxze5XvvLF+VNP/WQ9PO2h60y8hr5NodArhD/k9PXDMEYkwDrpsQ2jsIcB9NR1y03bRMB1dK3ddMYxwGWNgPZMt5ILcu9NZzeVKLu30z4+2mUMBXZYwyxtyPHxCOBch6WdfCjtdfSHLdvf+B+/0Ntsb3Sph+rro8XmAej9AEL1ddkSp9XdfvuvDRr4MXEPZSDYwQ64xsx+BOs+gr5LBuTriYK6/j5bBZ+LaTv/nS902wVQNh4+/OEPFz0XJQ1DX31D+ISJgD9cQ99jKoctcArxsSSuYlnh0uJq+UYGzfNrfbpR+OatCzW4AgAb54QcU4imHb0vHXT0VXMRwRdd911/OAAmddtX3RCILftCHbQtfPXVfFiC1lc3P3oPsLEPejrw9Y2xbdQ79sOOerAxdMM4PlYb9LGfABsFkEd76PoTr2HQ8U3b+TVXX9vL/JDnnnsue2UIn4/UBoCuW276zJkzKQ2UdfE5pmeiBRAf66p5PvguyCEAXlezCzh1MLGYcrbiWYuLSQ4HO+UlW86eLBB0LNiLHA4712FpJx9KBxsAu+0cwffnf/7nO/cClH7lwdmnNgBop1B9yYMNfDBxjkGyFOJLHhsBIZD1/UOjADsKQs+ujRToibkBrD+hz1Yxp4dJePgy7vLD+RI5uwAy8BOmNgB8dUzFnz17NvieHuqD+Tz22zAL1LsHO3XJpMDp7MWhdwo8tb9zcD72ojrpY1q3uGEPTEZ1BlsBAMdGBx+D3gYAjoE+bADAwd15553Fvh5b4tJpl8DUBoB06KF6Y2IlusdLgz7yIij8X88/X2yT3Iwvv/TSoqGBQF6qN3oVMNyRYiffAUD0J2gA4F5iAl/p79Zbb+30XKQ2AELPQsq7Ap6E59a2BM5wfuvEOspJgWs1SWGd7vbydI2uAKCjznVgzJcCY5MAEXzp/LAJTs6pgNj4B92nuZv/sDzC2BwADgHQTqF6Y0y8dKIfvsTxFZ1jg9Lg6MsHm6KemEdQ0iuAOQfoVYjZytswPOzm5HOBe4shhpwfhjzQGOH9LYW3vvMf+lcq7LZz1+TQ0LMRoiVsCWwrAZbnO5deUmm8xeT83pUt3bsYPQZLm5zQe603TmBwBQCWHoUcUoxGBx+D3mWAhz0A2HBFOmh02WLnttgPX6wJs6ePyZblyOvULz1pE1e98bVaMukOgf+Zf/1vYlVeOh1zDLDsL7dHADZ4+OFL8yZcdoIdYw1DNMrkPbr++uvnL73yStQGsGNCMD0mW5Yjr9kb4YNcBYD6+OqZik94lm1L4I1z0ccq1HVS4DFhxYkxj0kUV2o7Mz4qnZm+Ll0BQIcmg2Ho2nvgy+GXHpZaad2Qfs973rP4kmZXOAI+ggrmLWDOQNevflmmz8ETzy+9UN0xMS/3ixl1wVyBvva8j0bHQgYEVZwwmFM/8OJ++WzmbRgePhf4+pb3CNe457j3nBeBBsFzf/KDxUmHmC/QZbxfl7XMfQDw/iSsBMCOnvbbYAusfFIgtuotnZV43+nmqg2+N+tYte9rpybTcDihwB2j0bHHYHAnwENnD2crdVvmdcpOgN/50vkTtpL1xpd/TnDEFzVWB6yyqz+3LYBGCgJ6bm+ArycAX89sYPlgn4283GcqNiwEneVJkfJ5wLuTm05ZCfCWyVvevI6OyHROt8DiA7xqfux7J7z4HiYFnqqn7aPeAg6dtYuOfQLSq2icS7JAMKhi0l2Jo6JjizUQJN31zEic7u7NddZd+G9429+LBiKcWy9tJeuG4J8TFNE9jq/+df2hNyB3jgMbAdJuT3zje1G747TGLve2S97/6cozQf0wiVHWp+u1rQRYkldcg2Kwc670j8nX0/ap4p0CsWNfckGiMbA/PfjCGth021TEGtGg88QhJF2dFhsDMeg79Y3Pm28YIFaHrnR8YcZ2e+MEQG0r1Bmz/XOCIbquX3zx/1nX2H+k95/9+z/LWuKIRg/OPoAN+azgOrYSAHMzut7jkvwpvUI4yljWh/UqhZCVoOunts2RbWt96532M/SPObBoUmBdNdfVh5Oycgqru7Q4tvXOLqfeg60AoIODw0r94+jU2PO1iq89lBl73jnRi/UmxEY8OUvmMJkOs9M35YfhCxwZnNr7gRUeOAdBPjMIojH7czlgQnBMCaBJPCnd/65hIVm3kuuEkyxtJcBy/OcYSrk0KbAgLu9Xs/Qlozilb2/a/Cj2Ip6gT5uXcTrgGCxlOpywQHAFQJczAOjYGAhjEPwYKz3x/IheJNDwJb7MMd+Ur3/oJcd5WXdA7MiXGvxwBsAyfym7A/alz0MPPZRsBywthO34zCCIxp4LdMUvM/infP2jR4vDQrI+rFcptJUAJ/zYViO6zMlL2inwUgHts7GX8AQdrZKd2dVbfXfGXfnPh5zmslYAyIAZW/eNZ0wvCQzVoSstdt479OEZANrJY2e+1OCPr+Shft///vcXX+HXXnut8xhkHI0MGs4HAO9QP0xoTLUHxrrlcxEbBsB94J4AXe95Sv7Y2n/ow1Uhsh59XCesBMDEXvttkQUGnRRY77SP4IHO+lfNxf2q/cQW3YN1rOpgZwDQ0eV+5cSWA/IZXMZQQErXP/TBCgbWlxDd2Kn76KPbv+8lfgjk6E6/4oq/nv1ljDzIi7kLff5Qx9QeEcyZwCRIPj+pz8UyhgJSJoTiuWCvEOvQF8TE3IRGyjr6I9O5gwUWkwILhgKCQ/T3Vu1tdLpZsJo92KEulnU5FsDpYV5nwiWApY6LwTAXpnzt4VkcshGQGvzl5D/aCfVNDXRYN99lmR+68RGo8ccXPJYZlgR933OA3gGcnwDZ6NFAOV2HDiArpScADSM+O+hKj00SxTOBISJ0z/vq0xWfMu4PPTj5j/r3CTExN6Ee2OLbfltmgV4n6e/tNNfEJmU5GwVV88xdV8wu2zLbr2N1g46k6woABsRcGB3zPWzlwtkP8cWXGvzx7Ouvf9QVJ+mlrGIfuqEAACAASURBVPdHDwFmypf8sPseykCATggGvfOgUVA6XIAGROoZCNg4icEz+lwc9lIO9Vy8/61/K6kXdKixf75HaIQl3HM7FGgdPXIPOpceH3xsUiAm7tVV86ozwIeGA6rm1TO7X31HD/UwEcNaILoCgOOwdDy5kI67BKbM/GbjtK+xX0z4S+3exXshx3hpG9Q15XQ/BO/Sk/swWXBVgV8HntKJizjAKKWRhBUU8vlJmSNCn4WArfUtSeO5SJkLwnKHmPkvbYBrTNCN1MVWAgzrP0crvXjO3rT986PYjXEBPtBZsGquG61lTDFpgQ9FHMgxx6sdUGqagTEXosv3N//2Q+4vLjnOdXiNSVldegPw1R/b1EW+B9DNZQN8saZ0b6M7veSX+PUXCw690ktPaMyxFZ8fjKunDAXwXuGednku0IhAjwLlxaCcEIrng3r3DROWAmKCr/221AL7O2ffXXJ88GJ/AHQFxB50J33a3r6l9l7HageXAPIQoK6OyxUkU3HRXeAcDQE4fATzlG2DwYMx3RwHj+ceAcg3wSvl6x/j/iWT/tB1PpYvf914LBkOgA1gi1iDSfcCpGwbfcw/Vc1FNBARzFOeC8whwHOR0yDkc8Flf3xvUp/1XL4PfvCDsUacHQq0jl65R52LJgVWzfOTeto8eewFCnX5/4T29R51N1HDW6DVTlymuQQw1zG5+OkMcyFkOWd/y8D/k+fvxCZCcODousUQAf/o4sfOcbnOne8Dgj8aJrqeqFvqFy26v0t+ibO/Y4FhEDqWEZb8MJch1gAAHVsp8/nxPhfyWQhcozGgnws8H0M9F9CXuvcFE5YCYoKv/bbcAvtVewd9VyqcpDIe8WHS39u+9DNbbut1q37SEsCuDksHypI0GgEnun3ZCNAQjp+4QBA4enYzeHTwp21YJ2xgExvX/spXvlgSJxd5un79Iz9OybvxxhsXekJXXAOHHh/ZACy5RjAv+aXsD8DNgWhrwJSDgkruc26e2HMhde7rOuVQoHVzSKbvMBZYTApM9YnT2YtZDQDsDojxhmFUN6kDWgDHhnqdPpcA9uGwGChLIXTAV/eiEZD6IGcE9hSHr528tAvqhTXrseAPespZ9a4gijkDofvloyGwI8BjXT2W34X+WPt//fXXFzcGEJRKflgJEbMdegGe/P3fX/S88DnCPXD2EPV870PPR+i5gH7UtW+YuBQQZ33Yb8stUFezB0PP8DHatH10Uu82Tx9DBl6ookMFtvyGjKT6wYDCJYBdHZcMlF2vMe5+NDGQDYEYDDy7qc84ypTd/tomqFfKVyx4Sn8f+chHgvcLDQCs/8dZ9+iOx5c9AroO+BhGAM4HyY+xeQRlyILMlL0FsEVt6Q89I7GhAPC4niHMul80Dnu416nPBPjwXHAuCPRyPRcuffvC+Rp9Am9LAUfibFepRl21LyQ/15jHh6CekeGpVVbOyi6ywFJOAaSj046xNA15mGSFmdbHnk82AgYIAFiOyIldrI8Lpqxrf/mll0rjYzQA40ufwVtCHeglzXUd4n/Pe94TbYSUbhKE0w9jDQDYGLbXz4/3uRjgeeBzJ5eAup4Hl55a765pEeh998VOBSxyj5uT6XOn27fymU2B2PtnUk/bG1KYFzzV7IJt+rN2D0x0DwA6ta5OinL6hNAJM8EXOwbK4M9rDQsCAb7uXJv8uBw7jrCNBS/salf6w9h6zNmj6x4BPRTAXfQcfvQIxPQoXd4I22CcP2bHx3/3d529AHy+0BuQupNkso8Tzw/2IZDPhe/9oD5DwoSlgLYXwNq55n4VzovlzcVFLF9sAiQe+tiLsmg19Ku3SRvWAsElgH2cAkjH53OQXfGQDxkYA14MCzDoZzy3rucasiCT+rMcmZbX0AGb4cQCF44FLv1Bfizw+sb4YwFe9wLE+GN6IH/pD2P8MTvCFvKe6OeI9wb3sM+GgA78LCcEtW59p+1UwGGd5CZIr6ftGZefc+Oap4/qnDNugKUGRxntYh0sEGwAcAlgV4cVco5daC69MEb/0KceO94YYKOA0NM4QNDHjHI5ngv9WA51ZZqQ+NiXK7b87fK79dZbgw2AxZHFhxP8YgFc03U61iCIzQXoMg8ANvroR3852AhwrQbgfXDdM/QI4Lk40VvkeRakY0Se0HPB58AHpV5DXCcsBbS9ANbBGw+oY86S/mPz+epp+zX5Mnivq+YilhkMWAcT3b8FgksA4cT7clg+59g3XuqLQI4vQIzTYgwfX2/yj4AAGnh00Icc6kaZOq3xsaD1xS/+Zpf4P4+NvWOSHgN5LIBruk5TDqGmY1JgrBegS2VjhyjB1vIe8d4Q8t5IHuLQSORzgXkk8pnANZ4VPBfo4nfN+3CVQdkuSP6h4G233Ra9F/27DpO4Lha4a3L+DXU1u+CN3aoRvDed3XRUNxzlm56x+dFRRrtYBwsEGwBcAtjVcbmcYh+4Ur1CZVOm5NE4pgnB+93v/l7wixVd2k888S+KYyIm1cUCLsf/EawZuAl1ACfeB2P8GGqI6YPtikt/GOOPDQNgzoW8T/Ja3hvgmSaUvCnXrnzExWCK/C48iUsB18EfmY4DWKDemV2dGsPBd8/p2U9OkNyvZu/NyXzvzsHuAHUwkcNYIOjEERy6OCaZN+Yku9JRVokMncelM3HkZZoQ+IceeigasEpnxiOIpqz/dy33YyDXgZ54H0zhx5BDqBEAGaW/f/enfxq158MPP3z0fPLeEPLeABJH6MKR5oMueRIXuvbJ7AuPw7pC9+GQZksBh/Gho5d6b9XelhzDq+ZVXaFT2OQnXcDBx7QAS4/WAkHHMcY9AKSjjTlQ8ObwSH5XOcRpmcCjez/0xYqla11+CKYxJ4+jeXXgZloHeuJ9MMafMO48x54FXX6xIRXffgC++8j7VwJ5z2Ve4mJQ5hnqOvZsTCYTHPplvy20QL3TPpIcv3faR06YKOtc4Wr24AkBhhijBaJLALHvel8OK+Ykh6ajHixDXkucrqum6bTkx/K+UAOgy/I/BNGUFQAIAmgE6OCNtA70Lh6JC/Gj+z/29Q9dIKPLL3agEmzKe8B7Q+jDk54LKQ+QeSUuds08Q8GELZxtKeAYvfASdKqr5tXUBgB6C06oVFftp1MF1DhFyH7rYIFoA0A6u66OK+YgS+jUSeopr0kvhdSJ+XVa4nFSXagBcPDAQZdYOE+ZA8CvQM4FYBCXgZ3XpPkg+QjJh50FU4I/dOmyFwCMFetV0acD8v7IZ0DiulzLe005xMUg+YeEthfAOrjc5euI8fzk2I3JgDuzq09oWVfNdTlCsOvQCSGGGJsFgksA+9wDAI4v5iSHoj/zr//N/Lnnnpvj5D1spIM/roEDjeW6nLOm6bTME9sBEJPauv5StgFmIwArBhi8ARnACSXNdU0+QvCgYUH5Mdh1GSBshQZEqFHFHQFdzxfvDe+ZC+Lo4uf+5Acnn40/+cH8j//43y6eDeajPFmWxMWuKWcoaHsBjM29jkMfzOhPjt3YzG9y/g0nNMeuQFknq03bG04IMcTYLBBsAPS1BwAdXsxBltAp2wUR4LGtLLbdxcE7+MtriUOD4I/+6PuL7mTKkvpoHNOE4MUa/1CwwiFBXX/oBcg5CRDdwtjLXwZxBnvifJB8gJARW4KoGwQIrl1/WDURsimXAsp7xWt5b4gjRHDHs/HSS69E/2gwoi4uecTFIMsdEibMybC9AMbmgZegT952/s2TXpVyDgbCrkNeQUYYiwWCSwD73AOAji/mKLvSUc6Rcz8M+ilOHjwICGg0UFdA6kOcThMPiHHxULDqsgOgDKRYWqeDbSiN7nps3cuAzoDPtA+SD/VKGF8+phPmK/TxQ+AN2RS0P/jDPzzWcNP3iGlA9PhgdUHqMyH50Ejk/aZMplMg8wwFbS+AsbjVcenRW9zOa0m0djDQuJ4DlzbBBkBfewDQ4aU4yRweypUQAfzoKz/h6046eF7D0VMm9fGlJT42Y72PL2IG1dQJgbJhgI17ZLBngPdB8KLLP3W8n2Vht8K+filLAX17Ach7g/uI4M97XAqhj5TL6xjkczQktL0AXC5uu3G99twXHSaw3fYfe+2PfbXRgRPii6JPhxVzkqV06Ii8GMtlt36pg2c+dPtSrrQBdQQOX54IPo+ee2z+Tx8Oj1XjS7XPBgACbEkjAF/yCNCyIeC6Rpc/dhXks5AK0Zjo84chj1gPAPYC+O1/+sgcK1awGRPOEdD3DL1CvLddIRoBHC6S5cSu+ewMBW0vgLG72+Xrh7N5ksf/d9t5cO5e7sFAmDi4/CpbiRkWCDr4vvYAoMOLOcgcOmUSLr7uOMZf+OWvAwMaFNSJ5WBM+tvf+Wfz/+2RRxdBB4GH/1gPQGwIAI0OBHXA1B8aFTlzAhDI8UWvVwnIXoCcWf6yYZDT7Z9aVzToYg2AB87+9tE94L1AgwwNMzTQcO/0ve2a1g1EPh8+yOdoaCjvh+faNgPKcJDrzoqzeZIbAFX7QrS+djBQ1ETrwhBdAogvij4dls859oFfdPv3FPhlcMBXPmbvP/KNb54IMgw2hLE5ALFtceUXPQ7awbh9SoOgpBGA4IAyoDN7AEq/+tEAiQV/BnzUSR4ilJKvpAHAe0KIxgB6BtBQTJ38J5+DE9evvLKYa5L6fvTxjKOsmBys3PEEfuJtL4B18dA96FlP20fTGwAJ+/fU1ezBVIF2MFAPd3A4EdEGAJ1bzOmk0imvDyjLxJj9CQdd2BhAoEL3LrqSH37kG9GgzwADGFsFEFsGGDrpD0Ez1L2OrvLcWfoMFJgbgM2Dcsf62YgIDW1AZxnwWSZhbL4Auu5jDQB5D1Kv0YuDxt1i2KjwWUFDQj6HoQDdxzOfIsP2AhjOYa6j5JwNgHDmT7SOdXXwseQGwHRxMNCpqFBjWIUFgksA4aBTHE4uT6rDTOVDsO7y9Q8njq9CdO2nfOWHAkxsHwCMVYd+sXXcH/zgB0PZF7RQI4JBty8IfdDwCP3AEyovtlcAhk1CDQD0KPCe4CyG2DXpEqKhhwYfniU0AHMak3KYKPQupD7PXfliz9BkMnl0Fc7Gyly+BfZ3zr47NVaD777TzVVRLXHQT45QOxgoatJVMQQbAH3vAUDHFnKSOTTKO5r4l/EVhzz4+sNXoAwEXa4x5owudAQkX8C6//7fCMXK6Fg+uupTftg8J3deQChIu2ih3gipI3R25ScOeoZ+qEvIpmh0+eZklN5PNARThwvQgMRzy+fRB3Oe7S68thfAqtzp+Mrdr2Y3J8fqafvnk8kk6WPdDgYa370u0QhfAl7nzAZAF2fky+tzkiX4lDXdslsfgbo0MOh8GFfGlyM2+EFdQ9vWIoihgeD74Us6dD9Ay9lWF3UuHRII6YHu/FCXv64fdA7JAy3UixCyKRpaaGDwOUOj7vz5J+bfeuzbi1UZ+n6Vpo+GC5577mTvwCuvLOxBHXyw5NmGrNx8CQ2A10qcheVZPwvU0/bLqQ2A/Z2D88k1tIOBkk01Zsal7gFAR+ZzkKV4V3ctu/URDLp268ugAVkYx9fLzKg7Jk36vv6BxyoB3y9lc5+cwMty8KUeC8CpdGxDHArWLFNC6ByTH5ocGTsMCL0qtL+G3NQJjbS+Gn6Qw+GCxdwTMRmQz7iGWq8h07YXwJhd7nJ1q6vmmeQGQNXek6xd70sLkks2xh4tgC8Br3PmJkBDOCvtIEvTGLNlAwDd+vgSx9efDNpdrrGuHHMDMEcAgcxlC6k7vhRDDQDQ0GPh+skVAL774sqXgoPuXXoD0E2f0/ugdfLVh3if7Av/8UKw+x/2xAFLvC/yXgCHhiCfD1wPMfSDRiEaBHhOMF+BumiodRsqndgAeG+PfsREjdAC97/rwTflbN1/X9V+ILkauQcDYf+AZOHGuCwLeIM/HHPfewDQ4WnHWJpmdy++yPv6usNkMKwbR8A8GlrAdsIvXVryxToQat2hU6wBgEaC6xf7UkcA7/qLlcGALGHKRL+YXqFVACjLN58A9yFmz3PnznmDLoO/C7KXCL05GMrp0lCUeWO9RPqZGSIt75/n2vYCWJaXXVE5uTEaDYZkVXvdXjC5VGPs0QJXeBzDUaOADYAhHBQDaA7E1xW6ihFAc5fnSQctr9FwQAMCdYwtJWR3srSH1h9fgbGVAL/+6/vOeBk75S82W94p1IFEUI3de9Jja/Qd4p2o2Mx01N31iw2pcAUAvsB5X3hPUE9X4Pfh0OBDTw+GjVybPMnnJueamxGhcUjdhoa8fwF4c4++xESN0AJ11X46tfu/rtpns6tQT9unUgvAGQLZBViGIS0Q3QMAwRZOtW9nRUedAvF1hoDfp0OGPDhjBPSjYHD4lX+UdqwowHp0aQ+pP4Ye+BWJSWmhr1bMA0DXtv7FgmRsvbyW50unzDVg4AiNzfvku/CxpYm+xs3tt/9a0JagMxijUYjgLe9L6H7GaDwPos/5A9ARzx/0DA0XyDqUXF955ZWxRp5tBjSkdx2B7Jx5entVM8tWOetgoN3m6ewCLMOQFsAXQNBJlDie1Dy+RgUCKRwugymdexcIWRzHl2PCsQCg6fg6lPVDHeDE4dClfrFZ62gcuAJrbNleHw0ATODDV3Ps3pMO3j5+sQYAhgj0Dw20UEMKuu3t/aNjtsd9wLwNNPBwr7rcb33/h5o/gOeHk0p970UuPmEzoHZI52KyV2+BvWnzo6QP9Kq5iL19sjW2g4GyTTamDME9APAFAQea63hS+WUg5fWg4/iOL3rt4GNpXTfMFXDpjH3pEZxCweuznz25np9BNwTRrV36Q96SiYDI06Xc1B4HXa+vfOWLQRvCvv/kt75yogHAxhgCa2xYJ3bPfXQ0LNAj1Pf8ATYE+E6UQpzlEHqOJpMJVgDZb0MtsJS9enBqUFILY7edL/jsYKAxPW74AvA6iSH3AKBT0wG19KsfQZhjwEM5fIwPU2846djSwljXNYKXXA2ANfuh+0EaeglygzG++n/1Vz+VJJ/luCCGNkqWAMZ6NlgWbMDf6//h9cWSyVAjCtsuM9j7ILrc5UoRX0AvwothI/Q4oFu/6/4DHBbQ70ZuOmEvgB+OyRmZLv1aoGC33jIF6qp5PrkRULWfLivFcg1ggeAeAPiCQMDLdTyp/AymEiKI+xy5xsuZ1uiaL3LgGb0C6P6Fc05dYoi16bFeAAwV8IfAGpspz0CZuiQPARWBPzUAU34IQhZkymDNOmiIpX2pZaPusnGBvKHgDxpsnDoZFI3LPo8Dls8bbCGfY1xjKIvHROtn15fG0IWWU5o+c+ZMSoNvALdiIsdgAYzpp8blTuf1JB8MVDUXOxU0Bqtulg74AvA6iSH3AKBT040FfFn7nCMnT/nWWvc51iudO64hO6dxgmCDL8LYyYBoIOAMA/5Su8p533CADwIlgzHy448vddDINxREGSiL5aIe0AU65ZYPGfylfP3Dduwuz7k34IWO+h4Xp195ZbFyAM+0fp75nANCV6w2CfUccTWKS5aWHUsn7gWAlUD220ALYFZ/agMAqwWKTVDQ1ZC013CxQpYx1QLBAIF12X04Ip+jks5RXnNMHRBf2wgM7BaVfFruUF936F1IXYEAPgYl6JoyGVD2AiAAlqzTHyrAL0uu3gMg5esfcyjk85DTO4NGJhpofTQaOTTE51Hq5MKRjoYs5ijIZ0s+O+QrhXhvEu6f7QWQ6i3XiG+xARCH3VNgl6H5pUw2WCPjr4mqK90DAE6NzlFDOEZ0n/ocH/ld9D6/7DCXQM/u9/VOoLGC7l6tExx6bBgAXdkoS/5iywETHHuK8x8Fj17+92f//s+iY/+wGe6NfI5oe9g89JUt7yGCb5fhIzQgMB+DZRPqZ5RpQvIRXpo/cGnJLXHkLYWQk/Cc2F4Aa+Kwc9TEjn7pX//NxawNgFyKJC83QGukZLmBq1DDdbFAdA8AjkeWOqBYPjq6ENQyJK+LBlzXrzrkRyNEBorQNQKR7KGgXtQVm/7EGgGYMHjx4sWjNgDGwktm6yc4fGdQwPg7vhgRzFLnIZSWJfOhjnLcHwbAsr7Y2D/OBqB9CbXdUZ/U+QHoacIcj9xhALksVJcPvVw4iXfRXTjWMRfaXgBdXOT65t2v2nsyGgDPdK5pzoYDmDPQuUAT0NUCK90DgI6Mzs4HyScheSVOXiOIlTYCIDs1aHCcn2W79AIOjYlYAwABD93e8resRgDW58sgjOvYmn0ZxEuvXcEfX++x4A86Gqe0N6HvPmBcPdSAkzTM4keXfkpDgLtC6vKhh8YxTUhdJXTRiCuFthdAVze5nvlxql9qA2B/evCFzrW0g4E6m3DZAoJ7AFx++eXHuldLHVAsn3SArmudX/Jomkxj2VeqI4ezx/yB1CWI6DZGUJe6yGvqIXGxnQER1NBIQFCRPwTjoYYDIBdfyb4fGlJDli0bHdABjTbskBhrAKC3BEMuepjIZXfeA3Sxp67egGzk8zUCoKf88mcZrvJdOPATT0gZkiZxpde2F8Cy3eooyjtVT9s/T24AVLPuw0B7O801qQWCzw4GWvmDsvI9AKSzoyPU0OX4yOOiSRz4EFC9vQGvvLKYDZ46g1yP81MPDaUOuEbDAqfVpQQ3rBrQgRHBEUu6UpfTxb7IY4FfNwjQSOirIYA6oC76h1n/KfsmoJGEswnw1c5GAO0v7U4cIWnoYZCT7uTXv77GfTs2P+CVVxZzNTjmT9mELANQ45gmlLy8dtGIK4W2F8DK/ezSFbjvdHNVVizeOfvuzkpeOhhodiG54Gl7Q+dCTUAXCwT3AMDpb9KRlTqgWD46Px/U+SWfpuk0edEbgIaAnCCIRgG+ILXT96X1OD9luyD1AE32KiDwxb5uQcf4tuucADQMcGBOaUMAeRG8Sn/IW1o+dEZeV+MG+mCeRIptMPNf3iM2AmBraXd9XzQtZ34A7j0aAqi/liPLcdFcOKmri+7CyXJyrm0vgC4ucj3z7lftJ5KPAK6aV3urpR0M1JsplyHotdCX4jL2AHA5Qjo/QpezC9Ekv48P3ffJ4/yPftPb1Uz5GlIHGfwZtLCBTkqgQ0CUkwJl0EYQxVcwGmmhxgDG2DGWj7kFvsAr5aZeQxZkQnZooiJ0g47QNVR+ylJJ2Ay9Iw899NCxBgDsKhsBtL3vnpBOmDM/ALyuyZ4sizIBNY5pQsnLaxeNuFJoewEsw5WOq4zkfXkwIX/aPtqb9vW0PZPcA2AHA/Vm90JBztngbBTgy0E6slIHFMtH5+eDOr/k0zSdJi/x+OLPWR6mx/kph3JD0BX8EawQDFMmBCLgYY/7lB+CK75o+UdPx7J/KJPlA4YCvtTt4YcfTmoQwR4YRmFDSkNXI0DeH947QknD/ADf/XKV41ruCXku2S6c5HXRXTipb+413+kAtL0ACp3oGLNl7cw7bW/vrQ52MFBvphxa0HsDzmDRMMCXQ66jKeGns/NBl0zyumgSR77cDWIwJ8Alx4VjGYTgCQUTjD8jkCGgpfzPnj0r4+VGXZ87dy7JBrATeglgW3TH66DMtGwE8H4QynvHa01Dgy91fgD4MJ8AsrQcF448hNRBQk1juiuMveuTyeRTQzsck78cC+SezYO5e71pllt43WX3od603kpB0T0A6Ji6Op9Yfpbjgzq/5NM0nQYvgjkCA4NECMbG+Slf6qCvY8GfXcipY94IfuDFJLlN+WF+Q2q3P+p/xx23H2uQpTYC5L3hvSMM0XwnPLqeHaws4D0NyZbl4Zq8hJLuwkl67nXCUkCsCLLfBlhgr2p/KbkXvmouYu5er9XO6n7osv9wr1pvnbDgEsA3vvGNxxxursPJ4aez80GXLPK6aMR1HeeHHJZDSNk+Wmrwp5zbbrst+QsYQfClV15Z+zYAhgZSlkSydwSn/XG5n7wPqY0AmYd2JwzRENRDZejGgNzDXz4fuqxQmZrGdFeYsILDjgXekBCw8mH4pZ1AtCE3bEXV+HyoW5DHAHd1PLH8dI4hqGVIXk1DGsECm8RoB+1KYyIgNn5xyZQ4XrM8piXMCf6Ug7HyT37y7yc3AjAJDmWu6w97LSCgM7jHICai6sAqbR4K0HI4AHloc0IphzgNwbN4ns491vvz5CqLOpHGdFeYsBTQGgArcsR9F1tPmydTewD2dtv7+y5/YgcD9W7SIQQGlwDii6Gr00nNT2fngy455JW03C+2knF+WZ7UISf4SxloACBQ5QRFBE3MC/CtEBhj4wC6YtVA6uRH1BGNHQR/3CfYl/YmpB1zGgHMQ6hlEU8o6Tk9Sphoyl4LLUvKJI1Q05juChMPlxrCz5jMJVrgrsn5N9RV+lL8venspt7Vyz0YaL+aYUKa/ZZrgaRjgLs6nlh+Or4Q1DIkL2mlY7ZSFq8pk2kJXbSc4M/8gGiwcCkiJgXmNgKwaQ7kjP2Hr34MX8S+9iUdwR8TBGkf9N7oFRnyvqQ2AqT9ZX6NZ1ry8LqvOSUsg5DyAV04Sc+9tqWAy3Wuqyqt3pldnfr1D757Ts+GOQo652AgbFqwKoNtcbnBJYA8BjjX0ZTw09n5oEsmeXN2dXN9lUE2ZRHK8ogjJI3pUPBH8OLkMOaTEF+3cliipBGAoImNcfRJgmNoFGAb5pRDfWTgxzUaQq61/ph1D/vR9oS0aWojgPxSlsTJa5ZBSFpObxN6eNBApQxCypJQ05juCtHTFBryO6TZUsA1Dwj3Vu1tyQ2APjcA0nbD5gLJikzbr+n8lh7UAslLALs6nlh+6fx811oG+HLWbfc5zk9doEMo+CNYQUfWifkIQZPBn9cPnP3tpO1wddBkQwCBaZVDAygbdSwJ/KgDJkWGutr1sA3sS5viOrTXv5wTIPNIGcQT8v4RanzOfBM8E7IXg7IIWYbUR+K6Xic0AGwp4KBud3jh9W779eS4u9M+MphGdjDQYKbtQ/CHYs6gq7PJyU8H6INalv5yZvB0QT2BjGVImcQRptByrd6BbwAAIABJREFUgr+Ux2tfoIJc8OCr3hXkU3DYaRCb67z80ktL6whAWRjjT9nL31cHbH/MRhMmZrruJ3DsVXHdL9jOZ1vklY0A8Ppk8D6RTqjxTIcaLboeuMesJ/MT6nKAJ64rTFgKiInB9ltjC9TT2YupDQD0FgxWVTsYaDDT9iE4uARwWacA0qHR+fkg+dCNKceEtWOVabk22yWXMnNp4M8J/ixHQgxbSF3ltQwMOevkQ0EVY+lDDBFg5z/IRuD2lZ+Kv//+3zjqLeE98e3YiK5+8gDSthKX0wiQMiiLUMqUfMRrvtz5AT45Wi75ukBsyRxp+NtKgD6864pknNn96jtSg/+Cb2d29WCq2sFAg5m2D8HY+9nrDLgEsIuzyclLZ+eDCIq+YCCDJ67Bx93ZpA5adiktFvz5dSrl62tfXXRvBfIhkOUsEwwFXIytI9AygCKAp2wuBB7wUh80THInLPr0ghw0IqSNeK/Qva7vL9OgkY95dTqlEaDzUBYh6YQaz7SEeAZCZbMOgGjQuoYFpDyW3RXGlgL+9E9dNv+Fj3/ziVX/3//Jb3+0Dye3ZTJw/O8NyQ2AanYBKwYGtZEdDDSoebsI/36oAcBDgLo6nNT80tm5ruFQY1/+6NpFD4HMz/IljtcltFjwl1/vlK8hJoPJAMBr6M/Gg84DfM6ugb5gOzY85gnIpXKsN+8RoG9iHxpR5NP5ZDoUiOVwAPNoyDIISddpjQcddfM19njfAWUDQMtlug+YshLgb9w8m//irY+t9P/+T35rr4tz29a8WNOf3ACYNk8ObqeV70g0eA3XtgDv1z8aBstcAUDHRgfqgwju0mnKa/3lTBmUDUgcYQpN8uYEfylbXiOQI+hI3XmN+snyZD5eo55dxtjH0gBAHRCYWS9XvYmDzWgjDXXgZB7KJUxtBJBfQsokJE2niQfUNMxn8DVg8VyF8kp5lFsKsTlWqOGPHoDdD9+z0uCPxoc1AMriSs4HN2JzWSkZuVa+J3GGrlvEOpoVAHRk0gGGrvXXFJyn/OrWeUPyc2ih4A/HLnWgXBdEANdBDGn5NRty+Kwflsj11QW/zEYBdMYGRrKOrJMPBzzG1V12g+1lfl7T9kwDpjYCmJdQysC1xjNNKPk1znX/+exoXp2WcrtchxoAoP21v/l3rQGwhsFglEPudjDQKJ+kUa0AoDOjw/NB8HHyHJZTDTnOT50Ac4K/zKev4ehdQQw41oV113mZlnR8GeNY4XVoCEBHHGsMnVkXCWW9gGeaEDjfF7Ts/ZH8Ug7LSm0EkF/KiMl25ZE4XsMG1EPqTrqvHOK7wiuvvNLbC4AegL88vf4/rXII4P0ff+xH1gOQHzdyJ90jNueXUpBjcTBQ1VxMGpuwg4EKLJydJbgCgIcAdXU0ufnpAGOQwZJ8LIdpCbvSYsFfBjSW5YM+WQgGUmdc+2RoPqTZEOhromCfPQII/GikSDu56sd6sd5MS4jufl8Dil/R5A/JYfB1yXLNCaBMQi2baULyARJHKGnyOXbRXTiZv/Q6thLgL/2V6X9eZQPAhgCy/fkiQz1tb0+KsbvtvK7aF8pKKchlBwMVGG3YLMEzAJa9AoCOjA4vBjU/04A6bxeaL2AjcOhuf1mO6xrO3hVwgJPBkfq7ZBBHHg1Bxzp8TKz76Ed/ufOyvNKGAMqGDtDFpzPxhKwL04DEEQLnO+CJjSjJS1nEES7kBA72kY0Anx4Sz3IklGVJfCyfi05ZfUFstBQaBkAvgDUAhnXAQ0jP2nivmj04hA5OmYuDgVJ7AKbtn08mk1NOQYbsywLBMwBuvPHGhePuy+GkytGO0pemPNJ1mnjAUlpO8GcZPgg9MGThagC4drWTemuZsm6+a+bBRkBYOYBNgUqDeWo+lIGyUKbUP6YjdSWfThNPGFoWGPuipgzC0D3WjQDmAdQ6Mk3o4k2haR6dlnK7XK/DSgAbAsh39XXVvJraA7DUrffr3YOdVMXAZwcD5d/81BxvmbzlzaHWP2irWAEgHSsdnw/S+ZHOtEtGLg38ocCQ++UPeSkT2FgXQqm3viaPD2p+pNFFji9yrN/HDoOljQKc5Ie8kAFZkKm732X5qTqSj3mZ1hD0lGWBKXLAE7rXbAS4dEBe4lmWhKU0l1zK6gtitUnMB7z7+l9bWS+AzQFI9eY/4dvfOfvunBh73+nmqp/kXsKVHQy0BCOnFYHDPoIOAN2s0hH15XhicqQDDV1TDnl0mnjAXFooIOjgT9khiO59BBLX179ewubSW8uWPL5r5vHRgScPGicI4lhVgIOIMFEPX4gI7rgGDjTwYP8CmVfLp0xCTZdp8hCSptPESwibuuwJXExHKYfXoXvORgB5AbWOTBO6eFNomkenpdyu19jpM+QHVr0SwHoA0pw5uXCkb3IDYBW97FnjE3YwEO/rEDBpAmBXB5ObH40OBJ4ufywvo9MklHoQRyhpuA4FAh38dV5f2ve1ykYW81EnQuJdkDw+KPPEeHx0iee1lItr4gk13cXj43XhidMQcn29KgjYrjkVWgbT1Dl079kI0Hl0mrJkvSWO16F8vrzM0xe85pprgg2AVU8EtAZAnuvfnx58IbUBsL9zcD5Peg/cWTMUp7MXeyjSRLgtkLQFcB+OBl2NCOh33333HDsL3nTTTXNMMMQ/tBQp9GWSQ3v7299+VB5mPkMH/NnIkM42FAB08E+1TWi8mrvfURaDAyHxGpIegszTlUfnp1zCXLrkpwxC0nSaeBf0zatwLa1z5de40DPARgDyaB2ZJpRyiSMM0TSPTsu8Xa/xHkTepdd+8ePnrl3Vf7+aXe52X4Z1WaCummeSGwBVe49LxqC43DWKONRgUIW2V3hwAiAcQ4lzQVDF7OJrr712EXQjziXmfJZGx5LH97znPQu9P/KRjyzmP2DZGruYdfDPsY1vxjr34Zey6OwJJU1fk8cHJX8XHp1XysV1jO7iYR6fLOLJ54PgS1kW6Muv8Sw3tREAfspgXglLaT65lNcXPHPmTMo7dsUK3aRNBE80/qUNgBKX2e+28/uq9gOJovtjw6EDdTW7kNpKwZhGf6WbpEML4IUOvvhwDNIJuRwOvuzBhy/6ZXzJx3Qego4xUjRmMCFS71znsom2mS84yS5qypGBg9ekaUh6CDJPVx6dn3IJc+mSnzIISdNp4n3QF7CB9+WJ4X0y0SiUPQGUQ50JiQckjjBE0zw6LfN2vU6ZCDiZTLBhmP1GboG6aq5Ljavgu/9dD75pFVU6VU+bJ1MVxaEGq1Byw8vECx1sAOixaToaOAx05W9qwI/ZBT0FGEZgA4l28UFf9zQnqel8dPaEmi7T5PHBFN4UHi1f5sF1jO7iYR6fLOLJF4Oh3RXRCIvl13SWn9IIYF7mkbCUBhmuvMT1BVFObCLgZDL5/Ib7w42oXl21n06Nq3XVPruyStvBQCszPQvGC+1tALh2AETAw5dwKN820tAYwLCHdNh0zr4JamgUMEiQl5B4QuI1JD0Emacrj85PuYS5dMlPGYSk6TTxIeibaCntHcrvo6U0ApCXOhNKecQRhmiaR6dl3j6uYzsCTiYTbBhmv5FbYG+nfbxO3GcHm/KtrDp2MNDKTM+Ck3YAxNc+5gJgEt02BvecOsNG6BmBzeCUQ8v+5EY12oHT2RNqukyTxwdTeFN4tHyZB9cxuouHeXyyJJ68MRiyOXtcYjI0nXqEGgEYEuBkTvITUh7TEoZo4NN0pvuGsR0BD98D+g6DI7VA8hJ7NBKqg4+trBp2MNDKTM+CgwGdM+XRE5ATBI13MofN0GjCGDEnEEqIQMIgoB058RJqHqYlj+86hTeFR8tnHsJcuuSnDELSdJr4GPT1uuAeyGWBMTmkSz1CjQA5J0Dm0XJSaJpHpymzL4i5LQnvLvYNsd9ILZC7yd69Owe7K60KxiAyxis+vVJlN6vw6AZACc4gxWFsNQ8aAh/+8IcXB+DIBgDGqkMOnTTCkJMnjw/KvF14dF4pF9cxuouHeXyyiCdfKkQ+37wLueoiRx51QQMitRHAPCyHaQlDNPBpOtN9Q5SV8M5j3xD7jdMCp/ar2c2p8RQ9BSuvhh0MtLJbENwAKMERpDgLLw8CI/cAwJcy/1yTD8jZ9tJZpl7rjYQwe59loGdjWXsP0I6o76/8yi2L3gC9Ll07clcdNQ/TLl6NS+FN4fHJ9eUlnlDnl2nyEJKm08SnwNCBS76uep9clx65jQDIphxCWR5xGpKHeKaHgHgv+Mx6oM0DWJnLjhdcT9svJzcAdtrH4xIH5shpsdSr2LJw4PqvUHxw/N/z8secwwk6VglwKAETCEuCOh1fLsxxkGhwsJGAXdGGWt2ws7NzZAPWx6UnaYQuHuLI44PkA+zCo/NKuS7Zmu7ioUzN68ITlwoh0xekubolR5bUH9c5PQEsR9dTy0ylU17fEI3khHd/hW7Lig5ZYO161HPHLJZ+aEHI2utNS3nRs3nwBQEnwhnxLocmnV7Mgfnyp+BjskkPyUI9MDkKjYKEZVLJ9oKNWC71ICReQtI0lDy+a+bx0YFP4dH5mYcwly75KYOQNJ0mPgUib2xZYIoc8IT08DUyOOQjexsoh1CWT5yG5CGe6SEgnveEBoDNAxih78d6/tSv/wVf1Vw3imqM9tjCUVhnECV6G/9H1za+8H3r4em0NMxxXjpvarqPMrQMfDmiQZDQVRp1pOhl4JeoLkfXUdNlWvPqdApvCk9ILvLH6C4e5pHlSz6JJ28qZF7fskDs6kiemEwfH/G4jwz4GsqJgeSXkGVLnLx20YnrG6LchAaAzQMYxC13E4od/ZIbAFVzcVUbAJ2opR0MdMIkQyM6j/8jeKHLnMvd6LC0QyJeQ83nS+t8OWmfTI0PyQzxou5oDHTpGUADCnYMlQP9NJ3pkO6kpfCm8FAeIfMQEk9IPCHxLkgeQvLoNPEpUOb1rcbQ8zF8cqUsF89iOCCxEUBZhJTHtIaazvRQMHYwkO0HMLR7LpNf77SfyWgAPFNWygC57GCgAYzqEfmWyVvePJlMgvv/h74A8LXv6t6n09JOiXgNNV8orfOmpkMyNc0nU/MhTV5JQw9Il14B2FXKYxmEkqavyeODkr8Lj84r5eI6RnfxMI9PlsSTNxXKvFj/r7/MmZYrMnyypSwfzwNnf3v+2c/evWjQ4RwJrP648cYbFxBzP/DHM9L1z8msgGiA4n3E/9y5c4tnyKdfKh4yQz4AtEM/4vEyhl6FBXCqX2oDAKcFrkJHZ5n1zuzqVMXBZwcDOc0YRR6+tN+PvdwuOpyWnsBHhxJyjpImr5k3BmWe3OuYbNJDcslDKHldODji0oYAelV0jwrLY1kakh6CzNOVR+enXMJcuuSnDELSdJr4FKjzpiwL9MmFLNwb3F+eZslA7npfVo2jbrKR4Btu0nVO3A/g5qjDMYZlWuAUJsmnxlFMvl+mcsGy7GCgoHn6Ir53Mpm8luuYEJTg9KST0I4VNBdO4kknlPJi18yTC2NyJd0nW/LwmrxMA2ocegRKhgawkyAcMOURyrL0NXl8UPJ34dF5pVxcx+guHubxyZJ48qZCmRfXoWWB3JWRshnsEUCx9TWGanLfnbHyo3GAHid86fuetYT6tn05JpPT3QL71ey9qcEffPs7Z9/dvdQeJdjBQD0a86QoTPrLCv5wAHAQ0onSORKn08ATR0heDUmPQZ0vJx2TTXpIJnkIJW8MhyCCAJIbCGB7X28LyySU+viuU3hTeLR85iHMpUt+yiAkTaeJT4HMS4g833rs286hgEe+8c1FQ3eTT7QMPYdoFOBZZWMfDYQQP/zJL3783LXr/v+FT37nvzrpLtcPgy19kxsAVfPq2Gp4ar9q78mowHgmMIzNkif1QVdP7GU+RsckINkVLR0onKhO+3ASzzyEoKX+mScXpsrP1ZN6SPkuHOkI5uhJybkPbASE5FI+eXyQfIBdeHReKdclW9NdPJSpeV144lKhlom0XhaIRu6mfeHnPGcuXjx7Ked+7H74nvkv3vrYWv/f/8lv7Z10meuHqavZg8nxc9o+Oroa5h4MNJolDKOz5DGFsoK/66tfOlE6XuJ0GnjiCMmrIekxqPPlpGOySQ/JJA+h5A3hXLSS3gCsEECZlKeh1Md3zTw+upQf4tE0yiXMpUt+yiAkTaeJT4HMS8g8Bw8cLCbmlQzRuALmtuL+8vT6/7QJDQAMQR/zmmuYqKvm+YwGwO2jq6IdDNT7LckK/vhCjXU704Fqhwq8CyfxpBNSVgpknlyYIps8PtmkS0jeGI50yY8uVjS0UoMGewIoywUp3wdlni48Oq+Ui+sY3cXDPD5ZEk/eVCjz4hq2t6Os83oDQ8/pm3/2LWv99Y/Gyyb0AOTGzr2d5preo00fArO2MdxpP9NHmRsqAxP+koNMrMufjpSO15cGnjyE5NWQ9BjU+XLSMdmkh2SSh1DyhnAuGvNiNnbOkIBsBFAuIWWGYApvCo8ug3kIc+mSnzIISdNp4lMg8yLwY4w7550w3jT/8Tdunq11IwANgHXvAcjtPb/ritllo4x7a3eQwSitOMma7Y91yj5nSgdKSD6dBt6Fk3jSCSkrBTJPLkyRTR6fbNIlJG8MBzp5NcQci4SJVkdBSzYCZLmhMlim5CdOwxSeUB6XHlImr7UMpkkndOGJS4WrDvwYYuByPEC8axgGKv0jv5Q3hiEMDAOscyNgE3oAsubPTdunxhm2JpOJHQzU+dZkBX+OL8PpaqdKRywheYjT6VQ5Lj7K0pBllUAty5cOydZ5JC9pLpyLJvl4ndMIwMQsTs5MlY9yUnhTeKgzIfMQEk9IPCHxLkgeQvLoNPEhiB6Wob/4GdwZ1LHsEw2O1LX2If1LaHguUD7+bGDABjk9TaW9HhgKePf1v7aWPQGb0AOwMSvosDYxeSLDbju3g4F+0mDI3eSHwT/kYEkjpGPSaeBdOIknnZCyUiDz5MIU2eTxySZdQvLGcKCT1wfBk9MIgEOX5aaWwTwhPWI8Oi/5CWN08GkepimD0IUnzgcRBEsmWsYCH7/e8c7oeTLUV0OfjkPhdfk6jYYJGwcY8uu7YfDTP3XZ/C/9lel/XreVAeveA7DYQydjA6C96eymn0SNEV7ZwUDFNwVLO466jEPXDP7SSWjHJGm8Jo8vDTx5CMmrIekxqPPlpGOySQ/JJA+h5A3hXDSZV1/nBC40GJA/tYwUvhQerTPzEObSJT9lEJKm08RriOCWsnQt9F6QhoCP+wGZuhymqZcPkm9Z0KcH8S490GBCzwXq2lePCRoCf+1v/t216Q1Y9x6A3F107zk9u6I4wiwjY9bBQLvt15eh0xqU8Sk6rxhk8KdjIHQ5CNIIyaPTwLtwEk86IWWlQObJhSmyyeOTTbqE5I3hQCdvDII3pyeA9zGlDJeeWp8UnlAelx5SJq+1DKZJJ3ThidMQm/fEnvsYHV/EsCmHWKgHoS6TeB/U/EOnfXpIvNZB0nCNusMGeA5zVqq4bLsuvQHr3gOwX7WfSO41H+EGQCdi6+JgoKq5mFSp6ezFEwK2D5F8tK8MGvrljzkH8JOHeXVa8rhozOfiI7+GMk/utZblS4fk6jySlzQXzkWTfL7r1EZAaFKglp2iSwqPT64vL/GEOr9Mk4eQNJ0mHrBkgyUZrGBDjOG7xu1ZLqEsF9fE+6DmHzrt04N4V/mkEUoeNga6DhWMvTdg7XsAdtuvJ8XK3XZer8MH88Z1aQzYIDkc90/a4heODi84X3YN5cvPax8P8eSTciVO4pmHUPOF0syTC0MyNc0nW/MhTV5Jc+EkL+kxiDwJx7Euvng5HyBFJnX18ZKeo7PM48qn6S4e6qN5XXjiANGYLf1KxQQ+/bUvZWtdXHq7eCROyxs6Lcv2XWsdXHzkkTQMhZQOEXBuwC98/JtPjPH//k9++6MDuujBRddV+0JqA+Deqr1tcIW6FmAHA2VZMGncHwFFvtCua774hCEe0ly8xBGSV0PSY1Dny0nHZJMekkkeQskbwrloMq/vGvnw9ZX65cWGnU8e8Cm6pPDoMpiHMJcu+SmDkDSdBr60y5+Bn7JDkOUSal7ifVDzD5326UG8q3zSCCWPC1fSEEADAP/DI8ixSmlMv1OTyYT/MemVpAtOxU0N/gu+ndnVSYJXzZSzrGFU5xov13Afkt2ZvmsEEgQUvtA+KF9+XmtejWcakLwSJ/GkE2q+UJp5cmFIpqb5ZGs+pMkraS6c5CU9BikT3dKpX7icrOaTTZkhfVJ4tHyZxyVb0108lKl5XXg8xyVforAjJrrJMijfByWvS29N12mf3KHwunxXWpcd4pE05iMOz1tqA1U0ANAIQG8lhizt14MF6ml7Q3IDoJpdWJsNj7I2NqiarTsYKLXrH47PNb7JF1lCvuSEksZrTdNp8BFHyLwakh6DOl9OOiab9JBM8hBK3hDORZN5fdcyHxytr2En8Zj97pMHvJTp40vh0XmZhzCXLvkpg5A0pnN6RaRt0Psl3wHKo3wfJB+h5iPeBzX/0GmfHsS7yieNUPKk4NCoSm2kynsymUzGcxZ9D4F4VSLqaXsmuQEwbZ5clZ7Z5eZubbiFBwPhLO5ocMASH77UfKF9EHyYVMVlQXi5+Ucgwh9OGHyUQdk+nMQzD6HMG7tmnlwYkyvpPtmSh9fkZRrQhQMeNqP9aE9AnEIH/Llz57w2RX7wptxr8FEHDV16lvCE8kgbkE+Wy2vSNCSdkHSk8VzmLvFDYHI9/1o+y9GQfIQxOvkINf/QaZYbgloHFy95JE3jZBqNq5JeGWsEZIfFExnqaftUegOgPXNCwFgRCOjJFcOGQFX7gbHWZQC9kmb9c624fJFd13CSOct+8LIjeOHFl46AsokjJF5D0mNQ58tJx2STHpJJHkLJ68PBNjxmNiV4gweH1DBgabmp3a3ySzemp6TjWpep6a408xBqHuIJNV2myUNIGoJ/7lcmnlE2VimHUMsnXkPyEcbo5CPU/EOnWa4PusrXvJKHtBBO8uB5T33WBZ/1BBQGiNy5chguKCxqNdnsYCCv3X8oXiDnS4fJTtIB8kWVEC9s7leVLhcNB5ZD2dJh4Jp4DTVfKK3zpqZDMjXNJ1PzIU1e0piGLUonqNG2CHb4mocsykVgTwmCCHxSP+anni5aDg95CaVcl2xNd/H4ZIG3JPjjuZblUj4haUz7IPkINR/xPqj5h0779JB4rYOk8Zo8TANqnE6TF/crtbHK530ymfz/7X1/rG1XXed9icaGxAGGcUZp1GqmpXefM4GIsZVWpgkzzyGZBIL8QQjBkglOCY8WqjOdqcbSDvLuuW1Rm9BGKp6zb3+I7RRsH49aCDTPUuEl1jrVwVZsWjGdtqFVUEvii9czfva7n/O+93vXz3P23mfvc74nufe7fnz3Wmt/1trr+12/vmvs7ekswosAbvTLGSTjxkBvYl2MyLkYaHtz58EuvkMDZUq64hdTy/woNUXcooJffLyVYILAYj7sHEgZrinjY1Q/l+OPpc34UJrkIZW8MgwYpAhpiV3IjTqS9Zg6wpLPsKyynAzTNIXH94zvWYaT6uelnzykucIf2Mt3ZzoyD7h94T4+Hz/DfVSn17TfVw6Gu/JnHKnkSQkjDymeh+KaeoxVtH8YMrNfBgJZ9nKK8umMpLvBahcD7a+H1I1/cuqfHyYphJT46Gp1YwqbswGujoRlIJU8MTefyaWxdGW8L23JQzd54cc7N3nHPGYUmG/K6Ao85Jfl1GGMI2U8KMNiVD7jek7Hu3iYh+QFpjnKFN45tvyh86HfR2V5XOXW8drvS7epcJ2/y6/zDvHIOD7HMO1nuKQ4nprZ19hywP4uP+gbbZb3JM8AFOPbg4l1MdIuBjpQK9fGPih0mi4hjA8TikHs+UXj0RFj5Ib8Yp0E42NUdiq57ljajA+lSx5SyQuhkyKUF8WVSh2wTUlLW3x0lV2+B9wpPL5nfM8ynFQ/L/3kQfvNwVSu9zMNUpk+3aE48oCSj1TGueLJR6r5m/YzXx915a95JQ/jQmHk8VG0w5T2KnhMCTjQ7bsD1uLOnLV4SXf97gtNHf37On50kuIja9QNJYRKADoPX+cgO5aY25dGLDyWroz3pSV54CZf7hT1ovhTCUgZWWH5QJZVvgPLr2kKT+gZmR/5ZJp0M05TxucIf2LCZ13Ul48O136dViw+xq+fr9uv83f5dZ4hHhnH5xim/Qx30TmUgK4ZC9rXF3fBc/Tf3fGjyaP/Pt+amzXN0Qc7x/O3nujoHx0nPkD9cbYx8tfCTSsBro6B5YxR17OpYbG0GR9Kjzyk4G1b+BNf1GXq9LhUBmXZfe+awqOf5TOkufGSH2nktFUp/Jm/pjJ9uslDv4+Sj1TzMdxHNX/Tfl85GO7Kn3GkkicljDwxir0ZGUs639ob8MzfW674k7jSN1kBGJTf2bN22D9UYLs4/UVX82Kg1NG/3ACFDxkf5Rza92x2ALMGOaMxCilSKgG+zkF2NjG3L41YeCxdGe9LS/LAvajwB6bANqNDnNUJsMVmwJS9HJgF4DvJd2CYpik8oWfwfCzexcNnctqqFP6y3C430yclD/0+Sj5SzcdwH9X8Tft95ZDhugwyjm7y0A+qw7Rf8vrcmd/No6YE+OU1rN+mysVeb5C3i4GqRhC96hcChR8eP058cBTGKRSCCcLFtYcAygU66JylBKTnSkuXk+X1UfLPQ31p6vBQ2pp3njVqYKcVNOSJtBCXq2ihbnHUM1avSBv58B1S3jPEo+OYLmluPPmBTexdGC+FP/P1UaYvKXllmMtNPlLNw3Af1fxN+33lYLgrf8aRSp6UMPLEKNNFe2Q9JlA7HujRAUbDySPJCkBRHvUk0/3gytjBoPxO6stiaqT7b5Vdwui5f3Sg/AjxsUGwpB71w0hUn53mByvTZBg+4tjo1SX8mRYp00uhfCaXpqRNHl/ajJc0RQnIxRVBvYfZAAAgAElEQVRGgGK4stNk2vT7qFQMWf6U9/Tx6HCmSRqLB5/myWmrKZdasSykOj9fuI/Px89wH9XpNe33lUOG6zLIOLrJQz+oDtN+yetz85lMJcA2BSpx8eFzxmeNisluqkzsvZG8Nb8YKHrhj6uTTx0hQpCAlx8tP1JSXzg6bd9ZXy38dVq+NMmnKfnnoTotnz+Utn6GvCElAHUij6X50mB4SppSyGP0n1rHKIfOh/lJmsIj+eHmM6S58eBPPUIp2xXzi1FdHllmV5wM02nLOJmO5qNf8zftZ74+6spf80oexoXCyBOjMg24U21a7F0eZJsChRIwKiZvShX+4Ou9mfw1vxgoet2vHP3zQ8RHFhLSECZa+OuPFH6Zniteb9qSnbTmZ1qkOj7k5zO5NJSmjvOl7eNDuEsJcE1Rh9JAHPNmmqHpfSheyBe8KXsBZHlkXsyTFHH8Y1iMkp9U8zOcVMenCgK0Vb4z00qlOk8+p8O1n3yksXjykWr+pv3MN0R1GVy85JFxOkz7Ja/LTX5S8Oi+Qyq4yv2okH9r79wuyquTFYCifLz3gGEKI/2FJ7u913jO1Ng56kM4sH4Ggev64GSYr5MNjfzlh4q06NdUfsha+Lt4Zbl0vM8vn8l1+9LU4aF0Y7xSCdDClun60mA4+UhRNxB6uv4h8MkDirxdfPK5VOHpK4vMT7v5DGlOPGYmYmXne6S0VZZBU1+ZdLj2p6aj+ejX6TXtZ74+6spf80oexoXCyBOjMg3pRp/BOo5QnIKy38bGxmhQ3psqD7eKSf/3UazxxUC/Gvkoqg1k/KB8HyHiMUsgO1vfmj/TImWa9PsoBFNshMa0SH1pucL5TC51peUL86Wt+TUf4vHuUji7eGQ6jGcY/aQIl2ulqDvUoeaHP8UuANLSzzIvUsaDMixG5TOu53S85EndUCrL7kovFqbfgfw6XPvJRxqLJx+p5m/az3xDVJfBxUseGafDtF/yutzk1zRFgRV9oC0FbGxsbA0m305SALBPoNi5bCW0plExeSzppYfldLRZXrcSL72xEdz8lzqy4weJjw0atxyl6g9S+/msDtd+8oHqOPolT4iP/KT6uRw/04jRUJr62RCvL86XBsP1cwxHXemZFckLPoykRSfpdKdsnmOeMv2Ym8+Qan6GkzJeKjehsrPcfD6XMj9JmYYMc7nJR6p5GO6jmr9pv68cDHflzzhSyZMSRp4YlelqNxTbUBsQcWu/FDAa7mwmy8FhOb1+c2e4ErJwDS8GgrYb/DAw8pMfU+pHGBupu9KUYT4384/Fx/hcz/OZXOpKyxfmS9vF7+P1hes0yMdw+kkZruuK8aTki42mv+e7z5r+zNXH/vrdv/LAdNl/KAfKE2vf+kZLvmuIQphce+211WwMNhcCFyhQoPjDvQqYqQEfMfRRnY/m0/Har/mb9uv8XX5dhhCPjONzDKMfJ1eAJxRVYky8gT/iUB9YwuEzmiJN8MXaAzYE/vBP/uz0oiP3nejT3xuu+OxWXUI4534czBTUle/S08l58VGfLR+dQTo6/c9d5vyg+HH6qOaj30dlOj4ehqfwSh64+WyM6udy/LG0GR9KkzykIV5fHJ8lJZ/2+8JjfCkjanSeF19+fOl//2Zw+B9TFIDUdX98BxAgqcdeKWgwgwbBJZdWiD8oMSeVca548pFq/qb9zNdHXflrXsnDOB0GgQ7hLpcUiWmIon6w9Mh+S6YLNxSH0PN7cd/68UvHS2/DOd/RTx05/sCZbn0xV85AeGuzrC3fxUpdw9NrY/v4DFbB6X98LPoD4gfro+RnPP0hWicv0yIN5avj+Ewu1emE/L60Xc/4eH3hOg3yMZx+Uh2u/ZovZS31e39g8E85HVcTvMO3HU3p5CuBznf2USgIGHUmCI0oD9KhIqCxZf4MJ2W4j5KvLeorhwzXZZFxdJNH+4FPopCO4g0F4tixY1UfxvxSlrJQ11Agm2ibTaVZqwKQsxRelNecEScr4Mq5GAgmhHv8ytHpf27i48fDjzVENS/9PirT8vEwPIVX8sDNZ2NUP5fjj6XN+FCa5CEN8fri+Cwp+bTfF57Ch9FsTBgue/QEJSRWRjn1z/fWNHHKOIqHLgsEE5dddJ6sG1Idr/3ka4vq/LXfVY4QD+OAR12KlsQbMwh6g2dqvUKRbEpg151uXQpA7mZ42AvosQw8WPQ1uhgoefpfftT8YH2UvIynP0Tr5GVapKF8dRyfyaU6nZDfl7brGR+vL1ynQT6G00+qw7Vf8yEe67Gyg3W5zz3880vrOJG3q0w6jCNxvrOkGCU2IYxkGTDKlcsPzJ+YkzLcR8nXFvWVQ4brssg4uskDP3DIneqXWKa4pdKFPGOzDFg+6sJsVqqiUJcCsMbH4U8rA1kXAxWTFw+qEL0JwW5Xb2fJ6X9+qKT8gH1U89FPeuIzD0/v/qX7p7f93L3T3/iZu6c3/sRt04//p09V7k++654q7v7feNA7cme+TE9TxpPqeJ+f/PNQX5o6PJR2Dq8rnWO//sUKO2AIPLGLF/jiD1h/5ugD04cf+Mq+JR3myfS03xceajeIW+b06ctf8Upvm2a5MYuh343vjpFoTDgwnUUphB4VEebPcpEy3EfJ1xb1lYPhrnIwjlTyYHTetPBnPaFeOfMC3Bkeon2ZBahLAcDptuQTAMXksd5Iu9SCrsPFQHs3YAU/AEyTyQ+Vbn7EPqr54D954mQlgH79399ZCaaUBgbFAILrC3ec2FcO5st8NGU8qY4P+flMLg2lqeN8aWs++H28DAc2wAhYpWAKHtQBFDDUCfNketrvC/eZZ2ZHCiGcOnKpky9l9A9hQyHA9yVtU/gTK1A5RU3MSVk2HyVfW9RXDhmuyyLj6AZPyqZSiVMdbqkEpCxn9WUWoC4FAJv6UvsS3BaYKld7w7cmFwNFbf/rkQk/an7APqr5MPLMEVCuxgch5xu9Mj9SXS6Gx6h+LscfS5vxoTTJQxrihfAGJi6sUsNQJ6gbmY8vbx3us/ooO+hljJxSRpJSseV7gS5L+BMzqQS46kSWFfH0S9423MzXR11l0LzgWYbwJ9ZYDkAZUjcELqMt5yrGNSkAh5INAA3LKU7N9Uaw5xQUdxundqQ91YJg8tI7A4CO1PUhI0x/zNrP5zDVz6noVCxjfJjmZn7MR1PGk+r4kJ/P5NJQmjrOl3YqHzBYVKGSOKOOYsoVy8ayxzpOrJ+2fRwwZfQvN/7xnUghFELfhCsO6WGvAJQK/sFuxrxLCBCKxJiU5fNR8rVFfeWQ4bosMg7ueYU/cAW+xBoU+Kcofrr+aN8Eaeg47e/DLEAdCgAM+si+Iebe3rzj3By52hveNbgY6IRu5NLvs4ymP2SXHx8/hH+dQko2RExfI1/dydCvy8TwGNXP5fhjaTM+lCZ5SF28eHeJRV1u1BXqzJUnwlxlgvCTbUa7294HkLLzX46y+U6gKUJAvh+mjl0b+CR+UJKQbqpwAp8rTVlOWRcMl3m24Wa+Puoqg+bN2fQHXDDj5Fu2YX7YnJq7cRPtAemm1FHXZwHqUABg0je5T+n3/rewLpK1E7KfVyEGO290XPywNNUfs/ZjXbop4c/GielvXS76dXkYnkL1s6n+lLTJ40uT8aSab9Epf2IXotxvofNmmUAZF1s/bXPUhM5ZCmiXGwqLLD/fKXUzGNLECDRHSCMPCJgYVi7hT5xZTh8lX1vUVw4Zrssi4+hOUQKAmxb8Om36mS4UgRSBjvok7jEFEDNabSu0y1gCwKU+of5hX9ygxA2yq/nLPQsJhaFHSFzi6iBl2Lzr/5hKblr4sxFy/ZodACk7AlKGxyj556GxtBkfSps8pJIX78r3bpL6ZgJcZUrZB3De4aveceH7j19w8ZFjlzT5t7GxEb3OWo7+gS3fKeU98G1AGMk64fMyLOT25UMhxGd1uvT7KJ9ri/rKwXBXORhHSp6QEuCrLz6rqUwbSkPKMgywh8KQOguA9txkO14k7YuuuP81GxsbhxaRQ6OifDy5fxmUVy2SV+efXeGLgT4ohb3LrT8u+vmR+ah3zX9QTm+/7L7pwzf/8fSJB56ePvbpr0+/8JGT00+8+dMLCTaOWFk+UF02GRdz62dT/bF0ZbwvTckDN/kwNZ/8UeKSqgX/UIc8IcAyyLIxDJ23q+2osDfufegLdUyBzuJQyokWdPQcSbL88p2g8IJHlX3mhzDxPc/0YhT5QajJPLTwl2ViejLM5SZfW9RVBh2my+KLR7hLCZDCn2kxDfo1ZTxpTAnAjBDyJn9sFmCv3rp6XTC+r4W+sY+eX74qp+/Y2pzw2w58nj2Owua+VECwabBHr1rKTki70dnho4h9YPxwSO+++rhT+ODYGYS+6/fS3780/bX/dvP0P/zrt1Z/7/6hy51p+OoBacuysiyS6vfw+eUzuW5fmjo8lK6PN3Z0EgIbyhSUKuD86Zs/O/2Ft/7iDNP//P3vnF7+o/8rC1fUpSwryybD4NZtx+Fvo8MMbmhFmVxLWvqdfAJDCn/5/vp5Gedyk59KgBb+jCdlGvT7KPnaor5yMNxVDsaRah6pBFD4a17t12kwnhTxqFOXYoc9TlTomE5sY+te24bp9JX8bRXlW3z97IHwYrL74XPGZ60kEHsvdWhrMH7ngRf3ja7++WIgHB/sCSBBA0DcHcsPQ1J+XJpixOia+kfY3/zV37pk/yxsd3d3n3U5rLdBIbj2/FuShJZPWLGMsvwxN59x0Ye+/OXpF7/0pcq2+Ofu/72qAyFfLF0Zz2c0lTx0Y8e/sw0OyuloUE4/80tfmEKJAob6h7LKjXqvPuuHpj93zv9wp6faNeoNyzksI8tDP2nCpqs21gmD91mg45adPcuu34l+tH8qMlpIg8f3PMN9lOmDQsjJ0aeMo5vp0O+j5GuL+sohw3VZZBzcrnjgQeEv+cnLMPo1Zbymeo9HSBmM7dXYaxc4Qr1yv6yN74Py5MoBoF8o92IgGBDSaXTUP+vg2NFJio9Qf1z064+Lft/oH6PS1N8FF1ywr1wQWP/z/BujAgvCilPWLI+kLHuM8hmMBG655ePTX/7lX5x+6EMfnL7vfT83vfTSd3r/3vve90yPHPmv06uvvmq6tfUr053bdqYnTvz+vpkJ5s08XJQ8pOAJjf4fvOEPo9C+8M0XDtxe94ZX/ccoplA65EZLWSZZdiksZRsS7qZHTNH9LHrtnuXX7yT93EgmBZKMRxraz3R9lPyk5KNf01g8+cnXFmW+Puoqh+Z18TDMx8tw8mnKeE3Bh/0XUOa4twlh5JPpaGVBtGPZN2EGdeV+OUfft4blTSsHgOuFVvBioGiHKT8S+XHIj4YfD+mB0f/gtMW5qIQSDJ/5zKflR1a5X/Fd/yppJgAjZZaVZSJleIgibwhvCPOQsM+JQ6dz6623zJQB5s9yacp4Uu/of1hWeydco34B58z5wOc/fwDXH3vFxUlKAMsiqSw3BKSnk5yF763Ruz6vOsKCy1koG9uzLLfrfWQY3FAEQfkc431+hvsonyclH/2axuLJT762KPMNUV0WF6/moV/z6nD6NdXPab+cBdJxTAvhctbM17YbbtN1fBe5aRzC9fbO2UY1OwgezI7nZtBL/qyLgTbLe3rwkskbAPlRkOqPhn7Y7Xc1HExPpwopSCuMVl0f3LkvG05HxWTXlQfDYP+e5dGU5df0K1/96vQ3P3lrNXrPEey5vO95z7unuNscywYsgy4j/IwjDR37y5lZAbabm5sHsE3Zb4G6lWXT5ca0ravOVBiUzqZ+31J57SsP97PocrveibhrymcZ7vMz3Ef5PCn56Nc0Fk9+8rVFma+PusqheV08DPPxMpx8mjLeR8mv4xlOmqLUbmxsrJQFvBvOn7yefWkKvXH4Wz/Y1AfdqXRX8GKg4IgppcPUH9CnPqg2/+2tT3/ltj+ejUJTHa997Wv3deDs3FPWrvkB6/IxXFJM8dc52k9VCrBMgBE5yhIr54FZFWrigzK6r0LjjWUMYkmK2ZXYxy6XAXxlZnoBCqWziV/UnDVmYVjvPrwZTj5NdbzPz3AfjaWbG09+X35NhTPfENV5u3g1D/2aV4fTr6l+TvvJ7wtnPGYKAm2ZcW3sbWnim3GmuV2UH4j1BbP4VTYApNHJ1Yywb0Cn0TF/cAMg10v5MZDqj0b6cdvcgRH6oKx2pWtBFPPrfQD8EKtZAApAD3UdCUQ5+Q6gd9999/SKK95f2zR/quDXfFhuePjhP5gJJ11OvMvsg1Pvi30Bub9PfepT7Lj20dgsQMopi4SNgE2tmQaVWbQdTuPL9ko324X2M5xUx/v8DPdRpkdKPvo1jcWTn3xtUebro65yaF4XD8N8vAwnn6aM91Hy63iGSxq77Apta5WWAUaD8k5ff+MIv6tjMq254qzgxUD7BAAFLKkcMckPAm794dDvaCCV8MLRtJwflgtwAoBl0dSXD8P1dDXLh7KfPHmyWuPXgnhZfiwLYOPgsWPHZrhKvEMKAGwn5P6Qj8YT/pS9ALJcrnaQsBEQSmcTv6Tpf7YDTfleDKdfUx3v8zPcR2Pp5saT35dfU+HMN0R13i5ezUO/5tXh9Guqn9N+8vvCGQ+6bssAo6J8mv1ojGJWvImPubNp5uyOHA3KT3T2RTY2XucSAjIstmFKfzzw+xrMbe/+bJac+trX/swppFi+2DKAPg7IsmLKvQujfp+ygeUIlJUdENwxy3+n/uFUFrYf+ci1TmxT9lfoshFXUiiNrKMArfuziLblkDLreifirynfk+E+P8N9lM+Tko9+TWPx5CdfW5T5+qirHJrXxcMwHy/Dyacp432U/Dqe4ZImLgM0NbNV97cSTC/XAFCPTrsF3zs5crRZXucTcgfCi8ljyQm3zxhdM5UfgXTrj4Z+nBU/gMHelPWNr79t+vQfPZMsqN72trcFBUmqAsCygWLqG6Ntn/DtSjiOHMolAeexSrER8skvfyMZVzD6sMWMi6/+GK6XViS+aCOJR6cgsOv8RTezcvpfl5d+tm/tZzipjqcfM064nAl7YLAMxj/sm0A4TnHgeCr5mR6pLzw1XvMxvaYp8w1RXQYXr+ah38WLfgZKMXDFhl9iDQr8Ec4ZQNfzCAulzzhS8CcsAzR9xLXO78Wb1mhQvp3fepQW41M9snfjfeesiBW6GChoMU1fliI/Bt9HhfBQo8Ea8rPPPh8VVjfd9GtB4Y+RZaoCwLJiZL2IgMcIEmlgBuEvnnzS+Q4wwvPoo49WewsWPUaIWQoYG0L5nQoA9wIUk11YT0z9oXwua2jAFLYWQvWHOHS+KFOoPQRG/qzXuo2nBG+zDG1mZfvQ70O/ppIfyhAEvHeDJutIUAgpCC/aqmD6Ml2Jb2q85mN6TVPm66Ou/DWvi4dh5AVewM1rXlxgzDaMekH9UGllWkwblGGkMo5uxCXObJ2TJUw6yDwalDcSvygdTB7q4Cs0W6QVuhgoeGEKNnPxA5CUH4qPxhoN1plxzt71gwBNtME9/e/nhY0CobNAuVHO8Xg8l/C/6qqfr8r63LPPuoqbFIb8odDMo3zA8BBmAjCa8eI6KCvbCFinjP1wtPKcc36EQvgATdlcKdsC3botJJydrtsk8IF3kUqItGapy0q/fhf6XRQCBYLcWycOYaR5oQy77FW48kOYLmeMj/xNU185ZLgug4yjW/PQj3iM6HOULI01/KgvKq9IU6bPMpAyjhThmEGSbcrjbuqES7NCTaQ+GkwecuHnDBuUN4pH18eZczEQTCp2FJngCQCayORHQMqPxEfRsTkby16nCFv0+HgOHz5cba7Bh8Xz9yHhJD+4lCNr1Pox7Z8rfGGw54knnojJ06x4KDeYPYBQzykPjgriXUKYwgwwRu+Y2v/Wt77lLNcXvvDFA1YAJaZww+RyMJ9hOVOqUP++NpFwEqDOY1MLGbNiO9bvQr+kGIUeOOaaIOxDmGJEiwuedDlkvoyTmOt4+iVvG27m66OuMmheFw/CgEusPwlh64pD/cn8UspCngTFts523brYqDa5F+NTLtycYYPy7a0XsgsZrsjFQEGNFiNK+aHQzY/BR7Emd6CxcL26mOxi5K4FT64/RVBB24fAzVnzx7T9M8/8P6cArTMQRoBSlYB3v/vd1d0IBzBVggeYAMezzz67mkXBcgV2+8PoUKJN8+glQRhFsR1IqttCwixOnScBgktZwCRUVpadPNrPcAj/nOnnWH3JeIxuqbAyP0195fLxkb9pqvN3+XUZUngwO7LoqF9iLN1ox1yCSSkLeRJOuPR6HwA29EmcYm5sGOyCPG69DCtwMVB01/Q8JwDwoWDqPdZwsAyQK/TJj41qsYuBMGrA+jmO1qUK2s8e/1yyjMc6OgQrRvOXXHJJNfKGH0sNTz3lvulQJ45lBYzuUxSUSgn4idtO40plSikAwCR0bJL4+WjKEUC5rIK6ZsfODpI08dhUXd9t0lKWr6wss46nH7SJkajrG+GSgMyb5SPVcdpPvraozl/7XeWI8aT0IS78csKgzFEJiJWH8Ynturf7ADIN3T1Z1wfcu3SOnj8+J6exdfCoRHTa1PXhIowfg49i5H0AGwqtPbqIsHr7q//LwfSlMCwmu5jmw076FOEPC4AQ6LEf9i1AWL/8Fa+MKi+wYIh1/1i6OL6HWYeUcuJK3wO4yvcellNg4xPwoXAoDrE9FchbTlXL9qHbQuJJgLo6yuD5f7n+H2q/fB++C/0QEnVPQ4fq0TcToMvF8mlKvraozt/l12UJ8UAJCuFTZ5xUAmSZfOVN3AdQ9wbX1uRjlqn7Ynx7awXrYkY9vxgoOG067wkAfkQpU6W4kz53xJoySkUH8fHRLUkjawh/11o/1tExmsfoPkXgh4Qr4qAQQHnAeWLX72Mf244qAe9612X/iLX+mZVFKlVKCeBSQKxMjEcdoC5iHSuEIOvX10EyHpTpB2gddwJAiQjmhZv8UB6WWZZRunU8/aHNfjjaCvsWMHKFP7gRFsMyFI9pb25WYxlc5WScppK3DbfOX/tdZfDxQMFsatrfhznNW7NMofIizneCRrTDuje4tib+cmQazAW3VrAuZjQalnf5GtWB8O5dDPSrosEe6EDnPQHAj6jatCYFFN2KQvBg81qoLIiDkIqO/CEIi8kuOuwUu/4+4Y9Re+pmxFi5XfFYNnD9YkoAyptyHTLaHrBKUa6AfYrwR5qcnnZ1kAhj3ZO21FFGbVnw/D/LzfJpquPh9x6/LCa72rIlL7rCrA5ma6CI4Q/mlWNLVrq/gALN8pCyvPT7KPnaor5yyHBdFhlHN2ZaUoS/VLpwwZjEGnjHjgdrrOHn0hbLEipvgj0AHEnt3S93Vhtm8Xv3knUWuOcXJgTPTXPaNPQh8GPx0dnIiUJfjVSrD3EvDgILR9C0wMRuf9xXn9OB4kx8bEodo/HH/uRPD8hhCP86Rvz6PbQf+esfBEds2QJKQMosALAFZugQXQoWsE5SqPbqTAok3Sbo1+0g4SQAlNBFf1kzWbqM0q/fA6Nwn0DC7YsU+Loe6cfSjqx3YJ4jnKhw6XLR76Pyndpw+8rBcFcZGEcKHq+yJfqNh292Xyimjw9D+UXbT+03UM/cDxArb8IGVyxJ9e6Xu69tY2PjUO9ess4C9/xiIOxW3ddBST+PAMY+BsTzI9b0wCzA3ghdCv7KLT5wCq7UUem+54vJLqbzUkb/OB3g+vluH5TY1OV22ULA0oPeuAhlgQoNNgOm7AXYh8sevsA0ZZ3f9axvXVq2D13/CScP6hgpBRVZjNZkGUPtlXx8D7QlFxYP3vCHrqbjDEN96faSuowll1xkuVlOH2X526K+cshwXRYZB3ds9A8snv2/LzgxloE46irxhiKQqnRBAWG5QuXFkpLMw+Oua39LnSIrmNbWsLzJ1d5dYTCHH0xsTSIPjQbld1wAucK2i3GX7owONuJ5TwDwAyKd7eZ1zQK4wpQy4MLRF4ZRaoq1P9jBd/2w5u/5mBsJxzKD64eLiijwXRRCBSObaq2ZGJIugJ8P11DHyI6S9S1pwkipjqOAwQ2AVGRD5WSZJY9zI+uwnOLipZx7F6DQuc6OVwaXEupMT02jrCynj/J9fBTtC8onvhV8CzB2FVOaoZRidgrLVDu37Uy/+KUveYWlLperHJonNvrHjEvqT8+84JtOme0KzQKwvHiXVd0IOBpOHvH1ATq8w7Zt2lU9enoxUPQI4B133DH7wPUHzI8hhYJnNpJih0cKYUU36TwCrJjsQhhiAxHuuXcJTRnmO+efMGKtXRHwnRJAxyzLDDdnAkDxt08BmAe3hGdg00HXv8+v20PiSGmRDza6AZCKrCyzLif9kmemuEqMBuX0K7e5p6BDwgkC1qVYpswEuJZeZDldbr6PpBDYwAJlYbtie6I/l+Jbg7DFldqucsgwWRYZTrf3lMWgrAwvhfDVcVia0TN5mAlImVXUyy4sN8tJf0v7Wxb5NrKe/fA547NmfbFs8x43zOFnZbCqzD29GCj5CCAbPCk/hByK6b0DxoF8At8X7mmI0EyhuUP4p1j8w6jH93N10rEwjO4uuOCCatNgyqY7nZ7PfC/2J8Q6ZDzbpBIgjaWw/n3U1R5aOAoY3QCIUxcoG8vtKifDJA8Erx71wJ9zmRXbGdqlrnf6U6an9do0y+mjfJ+vfPWrlYXNXMuTsXbniscMApQBLK1JvFlGlomU4aD4dl1YMyz3oivg7rpLJGXWhScCWE5Slpf+hP0tdSxvtSY2tzYnbyTeKRTm8FsrXJcz6unFQEkbp9jYNeXHkEIlz+2X3XdmxE+BToFPyvBEio4aHQjKiA7I1TnJsL/8hvvWvMTrPqvpXIwuYHIXHSuM/8g/jKpwdBDT+ykKAdaofT9uCJQjNbpB8Yepap+wSvmQfTy+jlC3BemXdc1wCroAXeQo4FztWJeTfpYZAteJy6DMmv5nveKYqe/9K6EUaet6VJK+gqoAACAASURBVMpy+igEP6bqY9P68ruo0837M2T5iDGpjPNO/6NPGJTTv/mrvyWUyRRGvVyYx5YCMJhA2VhOUpaX/oTlrV5tBNwuyqudbd7VNovy8S7L5FbLVl0MlCG8OjJ1Euw4eQSQjV1TfgyplM+DH5fa4CNzTjcRR1JX4xNhEFJydKQ3z+lODZ2i75di4QtW+yjswQ+3pownhTLg6ohkmK9Msb0AUACwHgkMZsssAp/kD1o8g7qR686suxj1tQX5nh73IpenJG0A1GX3lZV81eZVgYnEcR5hhMucPO9ehceOdsZs17PcoFi6S1kG099GE34o5PJKa4k7y4yw2WkhF+bFZDd22sL1/fiUrhSFy7XhVZYXZU5c3urNRsDRoLxXtvOQe6uYjFsVsl3PrIcXAwU7TqyFy49Vu/kxpFAXDwQWtP59ikCi0EfDRIfBUT/LhjXOWCcG08C+X2z9HyN6KfAp4DXVCgGEdKjzR5zPOBA2m/GdkI7LjSUNYgBMgp2pq4MVYagTqVAx3RTqqmc8lzBVCmV03t9cJ1l8ZeV7Otf/93B64oE0M8+ynaGOQm0gOCrds2vBsvko2jZnjNhOukChjGAJRGMu3yPYZgdl0vXhEm+4gYcLc8zKhYQb4qQCwHKzvPQnbgRcZHZr3m9irueSDQChny52Lpsrk1V9qIcXAwUVAL1zmo2elB9DKuVzmkLYYHpz3/4AKgKkex0vNglhJKQFP9PEyCfW4fluyUOHETv7j5G8FPZa0NMveeh2dUQyDM/6frFlDeRBDFgfwAjCPGVpANijDmh5jmkwzVTK5zRNUAAWuT3N2ckTW24A1O+gy0g/+bxT0sNy6juH7qs/hMemi3FePSSUICBRRpZPU7T9ZU33x745xmNTq5wN4DvgvULvjji059xfSOmK2QbgkgvbhcRehrGdBegiym1r4nJ7845zY3Ug46/f3Bm2Vrg+ZJRrQAFXLi75vYIdJwSSbOjazY+3Toq0oHnjDx8gOmH6Y6NSPItNP+xsXBTrkr4fFIPAR1zFYbMflgBCgp4Cnzyg2CsQSzu0DwA7rPX7yNmAK654/6yuWB+yvoAdcQSmGN3SL/nodqXBuBDlc5rGhN/Gxsa8m6WiG1m1BUCWX5eRfsZ7FYBBWSlVOcsAmIqO7RiPnQbgujTLJ6nrtIhuL8v2s71iiQ7n9GX54ZbCZZ+7Gm1OdmHWO/cHhcj33cU2XqL+WUbdNhDOsATltlxyP5+UPY6n78NdzArq8K3B5NtJia4TU64JxQ5cDOT9OPDR+EZObPj8OFIonyGVH5AMC4UzH/JrivhYR4h3Cv18nYUMxywBpjQh6KWQl34qAaA4HSCf97lxrt/3w7vGOnDiQ0p86A9R8pKSl/5Uyuc0vfLKK2MYzLtZCjY1gmmjLLr8unzST16vArDXMX7szZ+chmaTWJcvfPOFJJPSsHSpO1rpp0Eglg8UU9xQSGNtIxSP52+99ZZq5z4UFZ99A7wHcIIyihmp2F6bUJ4QzLBBIOtGvqvLDQXp2eefJ6xR+rWv/VlQ6cpRANg+iD39oLFlwwWU21bF52hQfsKFuytsa7N8oNXC9SWz0WD8jAswVxiuXFzie809cpKNnx9EHRRp4A8f7hN//vXqOt2/ePLJ6pIeHIdjHjJ/7Y6tf6LzCv30uWGfcMEaIkb1UtBLNxQDdKw5dwnAAJHvhyuDQx0q4miUxYUTwoCh609jCL8rDRefDuNzmiYeBZznc5jrLgv5jrqsfKcDCoBcjiomuxAgZ599doW7r94g5FwGgFztKnUJgOWD8J/3aB82wp448ftTmM5d5AeFAUsPmIGKtU9XPPYF8H2cNgAE5lCQoEynKF1QFGLfnqtPlmHYqMyysY3QD8qwBOUWCmrnfzl72EZFeU3nX2gZBezRxUBRBUA2cjZ2TeUH4XPzGVd6MgzCCcZ58PFWf88+X238eXaPQimAwRz5DNMmjY2GXGZ3ZQeIeFfn7Avb3NzctyTAGQFMd6Yc/2O66KxiP1cHKsM4omI9EBNgBkWqwpHYCgrMgb3EVafBtGKUz2kKIcF3DVAYpsr9BfexcCOrLrcun/STFwJACoSZWwgl1jHywXrzU089XSmw2B2ecvJDYoHLgmZ5OKZf5R4ArKPPI/yhZEKZbOIHhUQaGJJtM+SGUg7Mg5sAi8kuNkkCL3wrWELw/aBUxPby4G6RENaIwxKZbBdws23I8ETlttMnAXJPsY2KyZtyP9S14G/7YqCLrrj/NRcdue9Ezt9PHTn+wPCtH330x9527ZOgdMMv/w7/wvH/0+bfW67+vadS/kJl+ukPffop/Yc0f+bqY3+dkjZ43vCOjz6f+6fzyH0eZU4pn3wP13u6sElJFzyuZ+sMk22Lbtn+ctoweSmApSCVbm5klR023ezMNWU8BMA+ISEEP8NxnEzmt4ibafqoXJPOFbSYsm9K8GtB/Ln7fy97MyLO68c2AeOYpMQXSheEL2x6YNYQSlfCDX1VGrHlFtSB3BDLNsK2AcqwRNshnT4JAIHua3cHwovJrhkA8qgzuRcDYeelJ6mkYCgAF19+fGp/hsE6tgEpEFxuCAjZWbPTlh25dkue6oiqHI0rJQDLAK58c8Ni0//ohDkljen70IhaxmEmynfhlRbcdfoxgxebjZPlxH6C2bFLhfHMVkgx2cU+gFxsXfyxy7C43yLUNmRcbIPnP9+Y1+mTAJjSPyDoZbuX7mLyWJJwWlOmVi8GMgXABP86Cn688/BtR6PCwHcCAJ03Bb2msmOfGVbyCaVh6by+2iV0fGGYxYgdSeMJAExvS8EZcmNdHks/qT8sFeEUDZYu9BQ69sZAmcASQsoaPPPEskiojDIOCsM+IaQxH5bVLZaxWR8fzgyPjv6LyS6NLvnahg7v+0kAbOrbh70U+MqN4+5rKtvTXjsHTOy8TEvVzWUKgCkA66oAnHvYfbkOO3rQVEEvhT47d4ThKOq+jlELpWKyC+GNNWWZb447thsd+UMRwRp76jl/bIaNCWrsV8D0NfYSxDbM6ffBBlgoA3g+ls+xY8eSlQCcrIDZ39moH8KHmO9R7gXQZUrxv/qsH4oqW8Bb2xlh+5Btg2GgfT8JgGN9+9q5EvoyrmO32boF4zJD8y4GWsyesikApgCsqwLwwz/5s0Ghe9555x3YxCU7bXbmmpKH4dXudAohh0BC54gb5iBcUoSQ5Ala/xOdMPYjxI64YjSNUTqEv+8oHwR2ik0KWcYUNxQInILxKQPYtCdH+z73L7z1F88IfIm1wAJ4z6MEpAp/GM5iGyBlW9B+hifYuZj3mGvjogwGfaSAj7kXXbZu/IWWnUHWhophOV1kQ4UpAKYArKsC8L0/MPinkHDCtCw6bHbSmrIz15R8fLaaBZAKgBRGIhwzAalr1BBGKdfSojPG7ngsZfiEpgzHNLrvaB9G+iG86oiDIuC72hqnVGRZfe7TpsHHp/YJIuJMOiynODWROvOCaf/YMgvz4+5/2Q7YRlxhiEs8CbBs0eTMHyZ9Z7Mssm273MXkRWciFngGgdwjFYtcDGQKgCkApgC4DQGFTgBQuLuo7uzR6c/OqFMAkbKTFH5M6UPguIQTTg2kjvorgVRMdjEdnbLrH8apYKzH9cPx1DoEfEoa2D/gmwlI2RPwrndd9o8UxsRgn5+Y71Hg6TqNAfxRD7ENfzJtHrVkGyDVgp9+0sRjrp08CYBLfSQGQfegXMRk9xkhuequ0XDySBBI0Yi3i/LovHiYAmAKwLoqADFhBKHnEvDstNm5ayrj6a6OBAohX33b9JOKb1p++zkCSD4HNzajpW78w1E41w9r/TGs6o4PWbUMnQ7AEgZmBqq9AEV8FkDjBf+8eGPmgWv/rHdSthHtZzhoAoawWtm536goH3fh6AwblFd17gW6WKCtYXmTE0BXJzGYPDTvO5gCYArAOioAP37pONrh8gig7KSlm525puDRYfDv2xDoE/q+cNd3HwoTt/+ljP53bttxyf4qDMI4QTjVzgPFw/XDyQTf9L8M33eJVV24BjDnMUvZRuhme6Df1UYSLD527ihgNVsdwETLsK3NyRvnlVVr9VzWxUDF+NS8FwOZAmAKwDoqADgCGDsOhg1vro7a1ZnLjl26yUtaHQuUwohuUnam2s/wRIolB1zghDP8Uii63DhD71v3hwDWR/raUgZgmMf3wwkC17vIMFz+c3o/wGR3JoiIK2kinrPnPfzSyBLrmtTVHmQY3QlHATs3fY7l5xg2s/hisvvhc8ZnrZUgn/dlbxz+1g/OgPM0un3xm+ML58nLFABTANZRAUg9AsjO2UXZwcconpU8t1923+mjgS4h5ApL+f4FD0a+EP7IM8XoT8gsLpSgXIEPhQE299/xjndUpwoOHz48hcnr3HRCt1tij0DsSCMUG0zJH9h/IbDa14fOGS6Fv6udyPqX8bJNIBx4RTCa98bLeURD0jNYfk7GcFCeTErUmE4j0MbFQNDILj5y7BL7MwzWqQ287Pt+BFesejtcHgHUnTT9siMPuclPCl64950MoNAnhSCimzRROMEcrrz2Ghv75KhYu2HsJ/RL2fyHnfsQ+DgeiJMC8lIr7cYaPQwFQSFImVkIlQ0b5/T7aD9MBAOP2XIA8SSVWCdiTIGH2QXUI+ufdawp41n30i/dfTwKuL258yDxiFEsa5tsz0BgNCjvjIE6i98s78lI2lgNgXVHIKgA8Aig7KClW3fy8/ixMXAmmKTwkcJJhgfcEEYwhSvLCJv6WiBqf+x2y5htfJ7fp6DnZVY+Sj7QhBFvZSjIpwTgEir9PtqPUwPABPWDkXq1JEAc58CZ/S12+3PDn8Tc52b7kPEMI+3hUcB0q7XFZBfL2uve6WS9f9sXA2UVzpgNgX4jELwFkEcA2TlrKjtyn1s/Qz/46QbFKPKAsSAIKQooUgouRSHY5KifaUOgaIGo/bELfkKzJIjDaB7CnAJfCniXm3yksfTBF/rBaBF3/ut3gx8bIIkHKHDy7sNQuFLYS4p60pv9ZPq6bnXbIK8Ohz9RAZjnxstGvtTce2uwrN1IQVY10e1i/DrZ+GJus7C0qi3B3qsBBGBZzbsEQAXA1VEjjB15Kg09wzgIFhzbcyoDSjhhqh+KgxT8uqwQji6hyDAcpwv9Utb/IXyloKdg91HJCzdmEEL1ENoHgLKnGAcivsQHdQbcgN++GwQVxlV/W0x2UR+oFz3iZ90z3RB18TKMFM+HsNiL64wtABugNtArqSTTp1iG5dRsLCv0zGsI+BEIdrY8AsjOWdNQZ884/Yz2g88XBgGFJQL8YWofygHc8opZ5uNLB5vgKOxdFGvooR+EeEwgUQGgwNcCXvvJBwoFJLY5EPsEQr8nnngi+I54byyF+HAmdhDuwBc4A29i71KwmBbxp99Hyce8pF+7Y3h36VbAUTG+PTYoFfF3+T9Fi/Ei0ObFQN5CWIQhsFoIYBo1KNyoAOgOmn5fZ19XOPJhWsxTUsaRyji4T548GRWM4An9UhQA4IjNfxT0UsAjTPvJB+GfcO69qqNQGXFnQWgJAAoADCERJx/V+Em/foZxDKc/RDUv/ZomHAXsjC2AUTF5Ugj4/ZdeqdmU64vyytXqQlp6m7x7lhe7GKilV7JsDIFlI4Bp1KACwM5cd9D0Mz5EJa/LzbAQhV38x/7kT2cb2Xz56TRSNgBiE13oh7xjODEepwAo3EMUCgFOJqScAEDauCUv9osZOpLKnMZJ+4k3w4k3/aQMB2WYj7p4ZZh0JygAnTgK+NHzy1elCv+Kb85j6svuKJaef+7FQKiYpRfaCmAIdBuBD1Jw+ajslH1uX4efG470+QzcmNaGFTwI6Geffb76gxthT/z516d/9EePzvjlcywnwlKu0PXd+CcFbuwUgMQPI3ocA9SjfunHbEHMAJNME2v8sV/M1gHiiZOmwAwKFqwL/uU3vjHDG7jDj3AqYMSXlGnRH6Kal35NE44CdkIB2CrKtyQrAAsYqut2N9JC6XBOf7YbWE2ruCoAFdNCsSwLQ6DPCGAa1Tu65RFA3Tlrf0qHr5+hH8/STYrRJ4QOduY/+/xpwU8FQFIoA+CV+TMNhqVsjktRAHJmAYAphDuO9+lZgJT1fl0nKaN/KAe/+clbg8sd2Az5la9+dYa3xB7KVoX3nqIlcZZuKF7EmJRY0++j5JP5yjDpTlAA0G6X/hsNyhtd8scZtoCp+qW/aBcK0NbFQF14VyuDIdACAjCpGlUAZMfscvs6fF840vDF4SKeasQfEPxSIMEN4cX0kPZDX/5yZfoXV/+m3JoXG1kzHmZ3Q3i54rC5D1PzUASgEOSM+pHea1/7Wu+NgCwXKWwZuDY5MgyzEr/9O/dM777nM9WGwBMnfr9SnvSIX+Or/eDH7AvbgsSeYT6qeenXNPEoYAufSDiL0WDykFPYuwapg/LGcGoWG0SgrYuBgoWwSENgdRBYyAYAO21fZ49wyUN3iOYKfwgnTE8/+OCJ6b3HjlcCDkKOfxAksc1x0v4/pubBD2HvuoRnHiUAQj92zM+lPPiEP44lQqGA7QHMTPAXu+3wyiuvrHABH/GBG/skMDMARUoLe58fmOt6D9Wrj1eH05+oACz1KCDunRnpmxZdgn8vzGalF+w4R4Py7cnalq23LIi2Pb4GCCxkA4Cddazjj8UjHfBA4Iam/Cth9PzpNWkIvi9+6UvT/33PvTNhRqEmacplOS988wXK0AMjfAhurRDMowS4BHwoTAp/KfD1M3JvQOxdMRMhsXG5f+fuT1ezJ6gTCHmfAoBw7glg/bI9hKjmpV9TpKHf1eFfqgIw2hxfmCyPhuXU9qUt2KNuF+PvzwEcFbRglva4IbDKCAQ7WdxCh45Yd87an9Lh8xmZnnRj6t+3Bo1ZAQgbTFm7RvkuQcYwXO+La3w5De6iGPnil2LwBzz4QQFJ3cHvEFxB3FFe/mIzB9hYyN9NN/1a8D2xB4C4gMqZABku3VgugKKFKf9KQRN7BFAvrnplmKaynTBOhml3Am7YxLq0H470JcujYvLk0gq6ShmPivLpZNAH5VWr9O72LoZAjQicE+tg5bEx3TlLPzvzRagULhAsUAgefvgPprjERgqkedyxJQAKdYymY5hQ2ILiJr6c0wGxtBGPUbz8YQNg6DlpITB2DHBr61eCWKYoBPd85r5KEYNChr0AnAWQ7SHkZhuRPAzTNOEo4FJtAYyG5V3JsqgY317jt7u+SWVdDDQoO3dv9PrWnL15xxCI2gCAYERHrTtm7ZeduXaTN5QO4iDwQR/4/OeDQipHAcDyANa3sfnNNfJnGIUuRtMhYYvRuOsXey6UJuMw5S/X85kP1vrJ46J4Dj+cZOD7+ChmQ4AvNkdKHFMEv+SXbqQFjLHxknXPOteU8aCMk2HanaAALLV/z7mlFuaCO/b997M4o2LnsnSta/JiP9/SSm0INI7ApS6BIsN0hxzys0NPpdh0hqlljPCx7iyFyrxuCnwoLrDux/J+5CPXBoUjFAT8MPUu31+75Wi7ekD8Q56x6XqdHv2XX365d6d/yn4DFAPKg0/wMxzCn5hg2QOjdwhuuawilQGfO1Q/UAi+8IUv7lMImCco24crjHGkCbckLs0WAC70SZZDp83Td+byosZ7liYzsIuBmkTX0l4jBII2AM4777xKWLAzjlHZodMtn4FAhpCEwMe6shQuIYESioPiAGGDfLhhDYKQ+YNC0cBeBgpBH8X+g9h0PgR16IclAfBQsMcoFAZgEvohPpYOlk8wuve9G8Lf+973VLjz6B/x4iY/TOcDO5ymwDR/CPecONQ3FD3Ug6wXtg0Zpt0JtgCwiXUpv6wN6YPyO/98d8GhpRR0BTM9tDWYfDtV+7KLgVawBdgr1YHAr4YEC40A6U455GenTgpeCDAI/ByhEeKdHVn78687d6gjb/xB4QAv0ooZyIGAxPp/bAQfUwAgyLERL4SrjMORQygNoV+KAgABG7vwCAaIiCtG/Bj9U/hXFHYX+Ld3tBIb/6Bg1VV/UNigEOg2xPaiKRQ3iZfHXce3kJ1GzpH07c2dB7MzsAf8CMxxMZBpX344LWY9EQjaAMDmM3TUulP2+XWnTj8ECAXPPKN+CCtMU88MBIld6PsE2LPPVwaEkC8Eol5WwGgyNELGGXmPgNkXzv0CWmhDUONcfkoakgcnCZCmSxHAiDzlpAH2CYTeDXEQpqwHUswGVHYXApgSY1gAlEoV08ilWCKQ7YrtxEUTbQFgM2vrv9GgPJk6CB1tlte1XsBVztAuBlrl2rV3awmBR6Ug0m4ITFen7AvzKQYQ3jlCAtPPmIbmLnMKoBQKgemzC4CNeiEhidG4xsDnx6kCCF38Yf9AbObAl44Mh6BHGZAmZhGQborwRxpQPELvhvLedsdvO+sBihJG+in40kaDPKWRu1wAhVC3IV/bSZn92NjYaN0WwGmz9ONTqQrADUX55pa+6fXIxi4GWo96trdsFIGgwIPAREft65x1uO7UpV+PxqVCwGlhCH15FDBJIO2NXLF+LWcaZPp0pywDpF7LKwV3F9yHDx8OKgApBoAw04JZlhzcUV+oZ8wMYDYBSy6x5QKeFmD7ke3E5U7AF5tZW/1tbU7emCr8wXfTv739X7RawFXPzC4GWvUatvdrEoFXbrzy5bGONdUGADttduiaIh7rvhTEoBA2ENg458/nQTHNnCOAMBLF5jKZdsh9xRXvDwrK2Jn7GGbLiMdejdDoH3F33HGHd2ZE44V6SVHEsGkSMwesb1mPqBOM3lHvUvmDW/LBzed9FJtRI7i2bgtgNCivSlYACruavpG+zC4GagRWS3Q9EIjaANBrtb4OmuG6Y5d+jA5xBI2jPxmn3RjNc6o5pAxguj91+hkjU4xSYzvlISwvuOCCmMDpTDyWHmLCH0sJxBjCXQpkLfylH8pZaH8A7TYw7VA7QFrIG38p/OQBTbAFULb9yY4G5b2pCsBWMRm3Xb61yC9nFyZubFoLUOwlDYE0BN4aGVXNOmrZGcfcFAKaup7TPPTH1v4xS6BnFKTgkm4oCHqWITYLAIEK4zoxfJYdf/bZZ1e3C8YUAGy8BP7EN2cjH/CDorVPEXv++WqmhumRyjpmGKmM027y+GgXbQGMismLqQqAnUJL65CyubLOYdrFQNn42gMrjUDQBgDWwqXQ8HXOOlx37vSn8pEfU8uuc+rYJyAFvM+NdWjwMj1JIRBjQhPxdc0E8Kw/ptVjdgZSlQpcMRwzb4x3wNq/fHfphmKEWR4fhjIcChcUL8wIQEGT6dDNOqZfUsZpKnl87gRbAE+1+aVub95xbqrwB9/1mzvDNsu3NnnZxUBrU9X2ovUjgGlT7yh3HhsA6MB1B0+/7twZ7qPkx+gTAgdLB6lT19LanatMCIvZzKeCgF35qTvxNZ54Dhsp9Q9r44ucGsA+hfe9L3ykkeWH4CaWGmuGY3kmtnGPygDSwwyCD1em6cuL8ZJqXu3vmi2ArcH4nakKAOzV1P/pWoozBOxioBkU5jAEchCo1QYAO23ZsUs340llnMtNPggn37E+CiVSKZxcaTIMaWMtmkIyRDHKxgU6MRPBUvhDuPvO9UtlAIaHcjYdYlni2LFjUxj0CZWZcR/72PY+Qc33JyXG9AMTYhmjci2fz+v0GA7KOE0lj8+daAugNTO724Odm5MVgM3ygZyP0ngzERgV49tTKwMbNzKTN3ZDYFURgAlV7wxArg0Adt66g6ef8aQM99Gc6WmsU7s2F/rSZhluueXjSYKUSgCmv3E+H0IbU/kY4UPYw42ZAoxUMWOR+4MBICgDUDKQFpcJIPDhxiwC0sUSQsr+BSgAsAqo9z5oPIiDpBjdQ5GKKQCI5zIL05XpMIxUxmk3eXy0a7YARsXksWSZU5TXrGoH0on3souBOlENVoj+IeAV/lAMIMzQUfs6ZV+47tzp1/wM1zRng9ppAXT6tkKmw3zod1HJkzqahlDFbnqcUFjGD8Ictvw5ug9RKCwQ4nxPUo0Fw0llPBSq1BMW2EdAZcOVFtJluKYyz5A7pKzuxbVyFDD3+Dns1fSva+hRibHBIlkbG5bT0XBns0evZ0U1BJpAANOlQQUg1wYAO2/dwdPPeEkZR+oy3+sbifrW+UPpMx/JA0EXs6Gvhe3dd989fenvX2pFD3jhmy9Mb731liTBz3Ji+cH1rgwjlTjQreMw+k7de8GjlkiL6ZAyfU0ZH6MJRwFxr0XjvywDdMVk1wwANV4lG3YxUPMYt57DxUeOXWJ/zWBw3uGr3vGy7/sRbALEH8wBP/U9333WPoWAHXWsY9bxfE7TEF/OOj8MCOlb5WRezEeGabfmgTKROrqmkK1u1rv77umpfzjViCIAIzsplgtZHlIsUcj31e/qinPx6DBequRTyBgOZSG0P4DpksryhNxcFlGK66Pf/bJ/+dBeW760jv7ioivuf03o1r48E/STx1rvONcxw5yLgcwoQz9ayBuOHP/2xZcfn9pfexgM33Z0eu7hn5/+8E/+rOFuba9TbYBtE/THLx03VrafOnI8uGkvR9Zgs2A/etuel3K7KK9OXgYws4y9qG1TANoT/KZkGdbWBk63gagCYNfQd09+ZK3LDMvpR88vX9W9t7ASSQRMATChZELJ2kDbbSCkAGD/WPJAc1hOYTBI9mnmbgiB3J2ZW0X5loaKYsnWhIApANb5t935W37W5kIKAEz6JisAxeTFmrpCSyYFgdGgPJlaOdtFeTQlTeNZHgKmAFhnbALZ2kDbbSCgABwaDcpPpMoYsznTsuwYDcob0yunuhjoUMtFtOwyEDAFwDr/tjt/y8/aXEAB2BgV5ePpMqa8KqO7M9ZFEbCLgRZFsFvPmwJgnbEJZGsDbbcBnwKA8/zJwn9YTrc2J2/sVo+64qXBxj6roNWpZFMArPNvu/O3/KzN+RSAG4ryzcnypZjsYl/a6vTGSaZTiwAAFKpJREFUPXmTUTF5MrmSBjZF0+VqNQXAOmMTyNYG2m4DPgVgtFlelyFbTna5b13ZstnFQKtTtaYAWOffdudv+Vmb8ykA25s7D46KyW6KErA1LG9anZ64R2+SczGQ3dPc7YrFh3jRkftO2J9h0Mc2cPGR331U/1UW7I787qM//aFPP8W4Pr7bKpf5DVd8dsvRM+IEwHdShD+UhK3B+J2ONCyoaQTsYqCmEbb0DQFDIAEBnjA6hLXgV2688uV7a8KHPrzx4HcpW/PkTUjWWJaBwHYxfl2S8K8umyunNw5/6weXUU7Lc2NjAyP71MqCYQcDzRAwBAwBQ8AQ8CGQM7M8MgNAPhjbCa8ua0hdqykm43ZKZbkYAoaAIWAI9BGBrL1lw/KuPr7jypTZLgZamaq0FzEEDAFDYOkI5Jwuu74or1x6gde5ADDAkLoEAD67GGidW4u9uyFgCBgCfgRy7cuMNscX+lOzmMYR+PCrf+NlOQqAXQzUeJVYBoaAIWAI9BKBrPP/w3Lay5dctULnXAyESxtsFmDVWoC9jyFgCBgC8yGAExuYyh8NJs/lDCZHg+qOmfkytafqQyDrYqDq6Mb4JRhvsOMb9dWBpWQIGAKGQJ8QqGaPB+VV2YJ/7/gf5E6f3ndly5p1MRArD7QYn8KVj0fPH5+zsuDYixkChoAhYAjMEKgu+inKa3CEL2vEL2UHLgAqyrfMEjXH8hDI3rihKrIy+Tgo7xwNdzaX9xaWsyFgCBgChkBTCEBObBfl0RzbMSEFwZaSm6qpOdLNOboRqlTsEbjh/Mnr5yiCPWIIGAKGgCHQMQS2i/H3V8vEqeZ99QDR5S/Kxzv2mutdnO3Bzs1Bwe6qxEDYnoGhN603qvb2hoAhYAj0EwHs8cJerzrlwiytYueyfqKyoqXG9H3q7U2zSgwoADOeQXnS1npWtNHYaxkChsDKIYA9XdjbVe3xSunjc3kGk+f27nhYOex6/UKjzfKemeDOrVQfP80MF5PH9m59sss8et1KrPCGgCGwigicHgSOb29kIEj5UEwes71iHW091WbAYnx77UoAKx+0mDyJyyI6CoEVyxAwBAyBtUJg71bYuxrt9weT58zsb0+a1Q1F+ebRcPJI7Q3izGzA7mgwfgYNYu/az54gY8U0BAwBQ2A1EMBmbWzarr2flwO+wfgZG/D1tL2Mismbqs18skLrdg8mz+FCIpwt7SlMWcW+6Mh9J+zPMGAbeMMVn3uvrYdmfULGvCACuP+l8X69mDyJ6+OtbS9YWV14fKYpcgRftxKA9GBUYrO8bpXPhmK24+LLj0/tzzBgG7jo8uO3duEbtzKsPgIY0G1v7jzY6Ijf9nqtbkOqNonA4E+TisBw/BLOnOLs6aohaQqACX4KflJTAFbtK+/e++AUVtZ9L3MN8CaPwKLsxsaGbfLuXhOot0SNHxOpZgRWz8ywKQCmAFDwk5oCUG/fZKnNEDhUmXivdt2X00ZG/RgIDsqT2DM2y9Uc64MARumnDUWMX2qkgZ1eGtgdVScT+m9m2BQAUwAo+ElNAVif/rKlNz2E49ajony8sT55WE6rpYRiYobeWqrUTmdTt41oZ8OFtrlZ3rNdjF/XaTAChTMFwBQACn5SUwACH4xFJSOAzXbYdFebSXfXMkAx2a02D26OL0wumDGuDwLYyY8d/XNfD+lqdI4wNELsZO0bsqYAmAJAwU9qCkDfvuJulRd9ynZRfmBUlE87B06O/jObbwUGX92qtRUvDe6JrholzoDW0QB9aQwmD/Vp/ckUAFMAKPhJTQFY8c6woddDHws7Ko0Otk6v8dstrw3V4con28q0VKUc9GMHqikApgBQ8JOaArDy3WCtLzibZcWxad/AaNHwYnxqq5iMtzfvOLfWwltia4cAjoRUf6c3psAOdEM7UpFuUT7eZeMTpgCYAkDBT2oKwNr1iXO9MAQ/7KRU9lKa6kOL8SncCotbAOcqpD1kCMQQaOVMalE+jSUICNxYedqMNwXAFAAKflJTANr8AvuXFzdYj2AfpSnBPxy/hNNcq2h7pX81viYlbtwqVbV+NXluNCivwnpZV2C9+MixS+zPMGAbuOiK+1/TlbZp5egOAm0csd4aTL69XZRHV9n6andq1EriRGBmZrgx7faMmeF1uW/ACbQFGgKGQOcRwPQ7puFHxfhUYyP+PbPre/2hWe7rfKtYgwJWV1I2bWa4mPzdqpoZXoMmYq9oCKwsAthwh413jQr+Nbt4bWUbyyq/GD6E0aD8RKMfgm12WeUmZO9mCPQGgVbuV+HV6x1aCu1NBVlBl4MApsKaNzM8PrUqZoaXU0uWqyFgCMyDACyawrJpoxerwThQsXNZ1zZDz4OXPbOmCHAXLDasNLgm1nszw2vaPOy1DYFeITDaHF9YmdNtdM9Tt49D96rCrLDdQKAVAxjDctpXM8PdqCUrhSFgCLgQaPzUExSKYvIY7K3YlbyuGrCwlUDgjAlMMzO8EhVqL2EIrDACMFU+Gkweamz2sppJ6Icl1BWuZnu1thGAmWGsbzV6+5V9XG1Xq+VnCKwCAocqg2fDySONCv6e3YWyChVr79A9BPbuv27ezDCm16B4dA8CK5EhYAh0AIFW+qLtzZ0HsaTQgfe1IhgCnUHgtNY9KE82qnXbztrOVLgVxBDoAgJnLj0rH2+s7ykmu9Xmwc3xhV14ZyuDIdBZBFrZcGNnaztb/1YwQ6ANBM4sQ5ZPNyn4cVwQxwbbeCfLwxBYGQRw5GY0KO9t7OM8vfP2xVFRXmNmhlem2diLGAJBBHCuHpeNjQYNbkSu7jIp74ShoGBhLNIQMATCCFRmhoflXU0a3bCLNcJ1YLGGQN8RwAkkXC42Gkyea2xQUYxPwSQwLKL2HS8rvyHQKQRasbeND3hY3mR3aneq6q0whsDcCGB2D7N8I1yiU50MKqe1UzNPPnf92IOGQBYCMzPDg/I7tX/I7CBMk8+qE2M2BLqGQCtWSIfjlzBgwPW/XXt/K48hsNIItPKBYy1vWN6FZYiVBrPBl7vw/ccvuPjIsUvsrz8Y9Fmgoey4NXQ0HL/U1ADBlgwb7DAsaUMgB4FWpvgwM4ANiXaMJ6dqKt6Lj/zuoxdffnxqf/3B4A1XfO69fTNJi5nB7cHOzc3eRDqRm4YPZX8M9oAhYAg0g0BbZobNkEdW/R266Mh9J0z490f4o672FICsil4W89Hzx+c0fgX5YPLcdlFebaeFllXLlq8hkIgAjvm0YmZ4UJ6EydC+jZQSYayNzWYA+iX8+6IA4IhddR346WW6+jf2VbN+42euL8orMbio7YOwhAwBQ6B5BGDoA+Z/cctWU2uBVbp2i1ewMk0BMAUg2EAyI6tjwZvlPU0eCx6ZxdDMWjF2Q6C7CBwaDcq3j5q+3KOYPImZB7tvYH9DMAXAFID9LWI+3w3nT17fvGGw8vHtYnypfcPz1ZE9ZQh0GgFc71mt4fO4XxPUzAzLNmB7AHq4AbJLewC2NidvrOzoN/GtMk2bxZPfrLkNgdVGALv5q06lyfXDYvKibRza2LAZAJsBmKc3wZ0go8HkoUaX7zArOCjfbvt45qkhe8YQ6DkCZma4+Qo0BcAUgJxWho21o6ZvBR1MHsJsYE65jNcQMARWFIFWzAzvWQ1bNzPDpgCYApDQbZzep9Pwhl07wptQE8ZiCKwrAjNjIg2bGca5ZZxfXgOcbQ+A7QHwNvMzJ3XKxxub6i8mu9Vynxnx8taDRRgChoBAAOZEt4vy6KiY/F2THdNosPpXhl50+fFbYQzI/vqDAcw2N7kTHmljt/0IJ2e4Ea9uiv09m+U928X4deLTNqchYAgYAkkIHGrFzDA6qkF5L445JZXKmAyBZhGAidtGzNzCSNd2UX6gOmdft8Bneqe/pzthKKhZmCx1Q8AQWAsEzpgZbvAu8WE5tTXKtWhOa/eSrXw/doPn2rUre2FDoFUEzpgZLp+ufeqSRxJPj2BoZrjV97PMDIE6EcAMGo7CjorJi7V/L7MR//gULgFat821ddaTpWUIGAIZCJxZw2x28xLMGMOccVNTshmvbKyGQDIC1dLZZnkdrs1tTPDvnarp89XFyYAaoyFgCHQSgdbMDJuJ0k7WvxVKIPDR88tXNb15FkoF8kBeImtzGgKGgCGwPARgWKRxy2WD8TPYRIWliOW9qeVsCOxHAKPwrWF502g4fqmxET+WEYrymr0reRvZpLj/rcxnCBgChkAmAq3YLrf7yTNrxdibQADr7rBpMSrGpxoT/IPJc6NBedWe4G/iNSxNQ8AQMATqRQDnj3EOuclrS6s11s3yOpsOrbfuLLUwAq1YzrRLtcKVYLGGgCHQfQRwHnlUjG9vdJSEqddBeaNtiOp+e+hzCau2PCzvalKprWwE4FptW+bqc1OxshsChoBEYGZmuMnpUqS9PmaGJbzmbhCBajZrUN7bsOB/3Da6NliJlrQhYAgsHwGM0jFab9zMMGYdzBra8iu8xyWYXZvNM/dNUDvq2uMWYkU3BAyBuRDgWelmjaSYPfS5KmfNHxoVkzdVVimbEPizNCeP4Opfs3Gx5o3NXt8QWGcEYCYVu5xH2O086xzLad1u3IiGEwrrjLW9exiB00dZy5N1t7196Q0mDyGfcEks1hAwBAyBNUKglYtSoGBYB7xGrSrpVVsxZmX3XCTVhTEZAobAOiPQipnhaqZh8shoUL7dpmDXtrUdgplpmJveN0KvcxaqmOxi5gl7CdYWZXtxQ8AQMATmQKCVkdmoKG339RyV09dHWlEwcaHVZnkPTg/0FScrtyFgCBgCnUCgFTPDRfm0mRnuRHU3UohGb7LkrMHpmyzvtNMnjVShJWoIGALrjEBbZoaxKRGbE9cZ61V5d9Tj9UV55Wgwfqa5qf7xqa1iMoaFwFXBzd7DEDAEDIFOItCGmeHqeOJmeZ3ZYO9kE4gWqjpm2vTpkmJ8anuwczOMXEULZAyGgCFgCBgC9SFwxszwZLe50d3k78zMcH111nRKleAvymsatS9hpqebrkZL3xAwBAyBNATaMjNso720+lgGFy6E2i7Ko9UFUVyTr5kibeRhl08to4YtT0PAEDAEAgjMzAw3ei/7+FR1uZGZGQ7URHtR7dT55MVRUV6ztxx0qL23s5wMAUPAEDAEshDACG20WV7X6DSwHfXKqpO6mVuZ9YF1ykF5le0Dqbv2LD1DwBAwBBpGoJWNYMNyamaGG65IkfzR88fnYMd9o9dLD8bP4OSAnQQRwJvTEDAEDIE+ImBmhvtYa/vL3M6Gz/LpUbFzGdrL/tzNZwgYAoaAIdBrBFqxAldtPDMzw3U1lOs3d4awqjfCkkvNm/pm6Zk1yLqqy9IxBAwBQ6DzCJw2M9ykHXgIKxMsczeEG86fvH40KO+dCekmhH8xeQz3Adh9EHNXkz1oCBgChkB/EWjLzLBNLae1kVasPQ4nj2wV5VtM8KfViXEZAoaAIbCqCOBY16FWBI9tLvO2oVYUMbsK2ou/RRgChoAhsPYIzKaeG11z3neufK0xx0h8NChPNjnVv7258+ComLxprYG2lzcEDAFDwBBIQ6CNXedrbFmu+T0YxWQXxzNHm+ML02rcuAwBQ8AQMAQMAYEAzp2PBuUnmj13Xn5na1jetOqXyrRyCsMMNInWa05DwBAwBAyBhRFox+Tsal4rC8GPTZCjYvJkY1P9EPyD8k7M3Cxc2ZaAIWAIGAKGgCGgEaCZ4SYvndk7834XzsDr/PvknxlgGoyfaU7wr6bS1Kd6trIaAoaAIbBWCMDM8HZRXj2CvfgmzqgzTZyF79k6Nkzowob+Pmzq3lRZjE/Z7Yxr9cnZyxoChoAh0C0EZqPcony6SUWgDzvZZ0pRMXmxOSzGL40G5Y1YkulWS7DSGAKGgCFgCKwjAoda2eCGWYFBebJrRmzaWBZZ4xMT6/g92TsbAoaAIdA7BE4bFRqM3zlq3Mzw8s3YtrMx0mwm9O4rsAIbAoaAIbDuCJy2bteskZtqZz1usNt48LvawhuCH8cWR4PyO41N9WNvxaC8yq7kbatWLR9DwBAwBAyB2hGAFbrKKA039jVBWzAzDDsFzdtEGD9zfVFeaVfy1t4MLUFDwBAwBAyBZSHQlplhnE7Ahry63nN7845zR8X49oav5H26ujCpxZmMuvCxdAwBQ8AQMAQMgSQEKjPDMFpT99E4MbNQx6a5qpzD8q595ay7zHZlclKbMSZDwBAwBAyBFUKgFTPDw/FLuWaGt4vx60awPyCFvXQLRWPuPQDF8jcxrlBTslcxBAwBQ8AQ6CMCs011w/FLcwvUmFAuxqewfg+lw4cRDA41vldhOHlk7xijrxgWbggYAoaAIWAIrBcCOE+/XZRHGzczrGzmY5NiZWgopkQsEj+YPIRTEetVo/a2hoAhYAgYAoZABgLYwFeZ0m3Uol5lVOheGBZqbNZhWE6rGYVi8qaM1zdWQ8AQMAQMAUNgvRHAGfjtovzAqMnLdBYZ1fueLSa7EPw49bDeNWhvbwgYAoaAIWAILIDAGTPDDV6n6xPmOeHYKLhZ3tP3WwwXqCp71BAwBAwBQ8AQqB2B9swM5wh98ELwq30Ftb+9JWgIGAKGgCFgCBgCGxvYSd/0+n10b0AxPrVVTMahkwVWV4aAIWAIGAKGgCHQAAKt7ODXMwLF+NT2YOdmmAZu4JUsSUPAEDAEDAFDwBBIRWBmZlgL61r945dGg/JG2C1ILZfxGQKGgCFgCBgChkALCDRhZrgOs8ItvLplYQgYAoaAIWAIGALVBT6D8hMjWACcdxYAdgiK8po6LxaymjEEDAFDwBAwBAyBFhDAOj3uAhjlmBkeTJ6DISLYIWihiJaFIWAIGAKGgCFgCDSFQJKZ4cH4meuL8soPnzM+q6lyWLqGgCFgCBgChoAhsAQEMJ2/XZRX77MuWEweGxU7ly2hOJalIWAIGAKGgCFgCLSNAK79tTP8baNu+RkChoAhYAgYAoaAIWAIGAKGgCFgCBgChoAhYAgYAoaAIWAIGAKGgCFgCBgChoAhYAgYAoaAIWAIGAKGgCFgCBgChoAhYAgYAgsg8P8BO4Z9CLL9/IEAAAAASUVORK5CYII=;" vertex="1" parent="1">
          <mxGeometry x="141" y="370" width="50" height="50" as="geometry" />
        </mxCell>
        <mxCell id="F3xhZ0yxzu9XNyZ04QvM-24" style="edgeStyle=orthogonalEdgeStyle;rounded=0;orthogonalLoop=1;jettySize=auto;html=1;startArrow=classic;startFill=1;" edge="1" parent="1" source="F3xhZ0yxzu9XNyZ04QvM-21" target="F3xhZ0yxzu9XNyZ04QvM-16">
          <mxGeometry relative="1" as="geometry" />
        </mxCell>
        <mxCell id="F3xhZ0yxzu9XNyZ04QvM-26" value="Published Ports:&lt;div&gt;443:443&lt;/div&gt;&lt;div&gt;80:80&lt;/div&gt;&lt;div&gt;3001:3001&lt;/div&gt;" style="rounded=0;orthogonalLoop=1;jettySize=auto;html=1;startArrow=classic;startFill=1;labelPosition=right;verticalLabelPosition=top;align=left;verticalAlign=bottom;" edge="1" parent="1" source="F3xhZ0yxzu9XNyZ04QvM-21" target="F3xhZ0yxzu9XNyZ04QvM-2">
          <mxGeometry relative="1" as="geometry" />
        </mxCell>
        <mxCell id="F3xhZ0yxzu9XNyZ04QvM-21" value="NGINX Container" style="shape=image;verticalLabelPosition=middle;labelBackgroundColor=default;verticalAlign=middle;aspect=fixed;imageAspect=0;image=https://www.melbournebioinformatics.org.au/tutorials/tutorials/docker/media/assets/container.svg;labelPosition=right;align=left;" vertex="1" parent="1">
          <mxGeometry x="240" y="370" width="50" height="50" as="geometry" />
        </mxCell>
        <mxCell id="F3xhZ0yxzu9XNyZ04QvM-22" value="Quartz Container&#xa;No published ports" style="shape=image;verticalLabelPosition=middle;labelBackgroundColor=default;verticalAlign=middle;aspect=fixed;imageAspect=0;image=https://www.melbournebioinformatics.org.au/tutorials/tutorials/docker/media/assets/container.svg;labelPosition=right;align=left;" vertex="1" parent="1">
          <mxGeometry x="330" y="450" width="50" height="50" as="geometry" />
        </mxCell>
        <mxCell id="F3xhZ0yxzu9XNyZ04QvM-27" style="edgeStyle=orthogonalEdgeStyle;rounded=0;orthogonalLoop=1;jettySize=auto;html=1;entryX=1;entryY=0.5;entryDx=0;entryDy=0;entryPerimeter=0;startArrow=classic;startFill=1;" edge="1" parent="1" source="F3xhZ0yxzu9XNyZ04QvM-22" target="F3xhZ0yxzu9XNyZ04QvM-16">
          <mxGeometry relative="1" as="geometry" />
        </mxCell>
      </root>
    </mxGraphModel>
  </diagram>
</mxfile>
